<svg width="40" height="40" viewBox="0 0 40 40" fill="none" xmlns="http://www.w3.org/2000/svg">
<rect width="40" height="40" rx="20" fill="#16B364"/>
<path fill-rule="evenodd" clip-rule="evenodd" d="M23.5 20.866V12.5C23.5 12.2348 23.3946 11.9804 23.2071 11.7929C23.0196 11.6054 22.7652 11.5 22.5 11.5C22.2348 11.5 21.9804 11.6054 21.7929 11.7929C21.6054 11.9804 21.5 12.2348 21.5 12.5V19.5H20.5V11C20.5 10.7348 20.3946 10.4804 20.2071 10.2929C20.0196 10.1054 19.7652 10 19.5 10C19.2348 10 18.9804 10.1054 18.7929 10.2929C18.6054 10.4804 18.5 10.7348 18.5 11V19.5H17.5V12.5C17.5 12.2348 17.3946 11.9804 17.2071 11.7929C17.0196 11.6054 16.7652 11.5 16.5 11.5C16.2348 11.5 15.9804 11.6054 15.7929 11.7929C15.6054 11.9804 15.5 12.2348 15.5 12.5V20.556H14.5V15.5C14.5 15.2348 14.3946 14.9804 14.2071 14.7929C14.0196 14.6054 13.7652 14.5 13.5 14.5C13.2348 14.5 12.9804 14.6054 12.7929 14.7929C12.6054 14.9804 12.5 15.2348 12.5 15.5V24C12.5 25.5913 13.1321 27.1174 14.2574 28.2426C15.3826 29.3679 16.9087 30 18.5 30H19.211C20.2923 30.0001 21.3534 29.7079 22.2823 29.1545C23.2112 28.6011 23.9733 27.8069 24.488 26.856L27.956 20.449C28.1139 20.1607 28.1545 19.8226 28.0692 19.5052C27.984 19.1877 27.7796 18.9154 27.4985 18.745C27.2175 18.5745 26.8815 18.5191 26.5606 18.5903C26.2397 18.6615 25.9586 18.8537 25.776 19.127L24.414 21.145C24.354 21.2336 24.2672 21.3006 24.1663 21.3362C24.0655 21.3717 23.9558 21.374 23.8535 21.3427C23.7513 21.3114 23.6617 21.2481 23.5981 21.1621C23.5345 21.0761 23.5001 20.972 23.5 20.865V20.866ZM17.011 22.992C17.1436 22.992 17.2708 22.9393 17.3646 22.8456C17.4583 22.7518 17.511 22.6246 17.511 22.492C17.511 22.3594 17.4583 22.2322 17.3646 22.1384C17.2708 22.0447 17.1436 21.992 17.011 21.992C16.8784 21.992 16.7512 22.0447 16.6574 22.1384C16.5637 22.2322 16.511 22.3594 16.511 22.492C16.511 22.6246 16.5637 22.7518 16.6574 22.8456C16.7512 22.9393 16.8784 22.992 17.011 22.992ZM19.511 23.49C19.6436 23.49 19.7708 23.4373 19.8646 23.3436C19.9583 23.2498 20.011 23.1226 20.011 22.99C20.011 22.8574 19.9583 22.7302 19.8646 22.6364C19.7708 22.5427 19.6436 22.49 19.511 22.49C19.3784 22.49 19.2512 22.5427 19.1574 22.6364C19.0637 22.7302 19.011 22.8574 19.011 22.99C19.011 23.1226 19.0637 23.2498 19.1574 23.3436C19.2512 23.4373 19.3784 23.49 19.511 23.49ZM18.513 24.99C18.5131 25.0557 18.5002 25.1207 18.4751 25.1814C18.4501 25.2421 18.4133 25.2972 18.3669 25.3437C18.3205 25.3902 18.2654 25.4271 18.2048 25.4522C18.1442 25.4774 18.0792 25.4904 18.0135 25.4905C17.9478 25.4906 17.8828 25.4777 17.8221 25.4526C17.7614 25.4276 17.7063 25.3908 17.6598 25.3444C17.6133 25.298 17.5764 25.2429 17.5513 25.1823C17.5261 25.1217 17.5131 25.0567 17.513 24.991C17.513 24.8584 17.5657 24.7312 17.6594 24.6374C17.7532 24.5437 17.8804 24.491 18.013 24.491C18.1456 24.491 18.2728 24.5437 18.3666 24.6374C18.4603 24.7312 18.513 24.8574 18.513 24.99ZM20.513 24.989C20.6456 24.989 20.7728 24.9363 20.8666 24.8426C20.9603 24.7488 21.013 24.6216 21.013 24.489C21.013 24.3564 20.9603 24.2292 20.8666 24.1354C20.7728 24.0417 20.6456 23.989 20.513 23.989C20.3804 23.989 20.2532 24.0417 20.1594 24.1354C20.0657 24.2292 20.013 24.3564 20.013 24.489C20.013 24.6216 20.0657 24.7488 20.1594 24.8426C20.2532 24.9363 20.3804 24.989 20.513 24.989ZM22.014 26.488C22.014 26.6206 21.9613 26.7478 21.8676 26.8416C21.7738 26.9353 21.6466 26.988 21.514 26.988C21.3814 26.988 21.2542 26.9353 21.1604 26.8416C21.0667 26.7478 21.014 26.6206 21.014 26.488C21.014 26.3554 21.0667 26.2282 21.1604 26.1344C21.2542 26.0407 21.3814 25.988 21.514 25.988C21.6466 25.988 21.7738 26.0407 21.8676 26.1344C21.9613 26.2282 22.014 26.3554 22.014 26.488ZM22.513 24.488C22.6456 24.488 22.7728 24.4353 22.8666 24.3416C22.9603 24.2478 23.013 24.1206 23.013 23.988C23.013 23.8554 22.9603 23.7282 22.8666 23.6344C22.7728 23.5407 22.6456 23.488 22.513 23.488C22.3804 23.488 22.2532 23.5407 22.1594 23.6344C22.0657 23.7282 22.013 23.8554 22.013 23.988C22.013 24.1206 22.0657 24.2478 22.1594 24.3416C22.2532 24.4353 22.3804 24.488 22.513 24.488ZM19.515 26.99C19.515 27.1226 19.4623 27.2498 19.3686 27.3436C19.2748 27.4373 19.1476 27.49 19.015 27.49C18.8824 27.49 18.7552 27.4373 18.6614 27.3436C18.5677 27.2498 18.515 27.1226 18.515 26.99C18.515 26.8574 18.5677 26.7302 18.6614 26.6364C18.7552 26.5427 18.8824 26.49 19.015 26.49C19.1476 26.49 19.2748 26.5427 19.3686 26.6364C19.4623 26.7302 19.515 26.8574 19.515 26.99ZM16.515 26.992C16.5807 26.9919 16.6457 26.9789 16.7063 26.9537C16.7669 26.9286 16.822 26.8917 16.8684 26.8452C16.9148 26.7987 16.9516 26.7436 16.9766 26.6829C17.0017 26.6222 17.0146 26.5572 17.0145 26.4915C17.0144 26.4258 17.0014 26.3608 16.9762 26.3002C16.9511 26.2396 16.9142 26.1845 16.8677 26.1381C16.8212 26.0917 16.7661 26.0549 16.7054 26.0299C16.6447 26.0048 16.5797 25.9919 16.514 25.992C16.3814 25.992 16.2542 26.0447 16.1604 26.1384C16.0667 26.2322 16.014 26.3594 16.014 26.492C16.014 26.6246 16.0667 26.7518 16.1604 26.8456C16.2542 26.9393 16.3814 26.992 16.514 26.992H16.515ZM16.013 24.492C16.0131 24.6246 15.9606 24.7518 15.8669 24.8457C15.7732 24.9396 15.6461 24.9924 15.5135 24.9925C15.3809 24.9926 15.2537 24.9401 15.1598 24.8464C15.0659 24.7527 15.0131 24.6256 15.013 24.493C15.013 24.3604 15.0657 24.2332 15.1594 24.1394C15.2532 24.0457 15.3804 23.993 15.513 23.993C15.6456 23.993 15.7728 24.0457 15.8666 24.1394C15.9603 24.2332 16.013 24.3594 16.013 24.492Z" fill="#F6FEF9"/>
</svg>
