<svg width="40" height="40" viewBox="0 0 40 40" fill="none" xmlns="http://www.w3.org/2000/svg">
<path fillRule="evenodd" clipRule="evenodd" d="M20 35C28.2843 35 35 28.2843 35 20C35 11.7157 28.2843 5 20 5C11.7157 5 5 11.7157 5 20C5 28.2843 11.7157 35 20 35ZM26.1257 17.8958C26.8045 17.2741 26.8508 16.2198 26.2291 15.541C25.6074 14.8622 24.5531 14.8159 23.8743 15.4376L17.7209 21.0733L16.1257 19.6123C15.4469 18.9906 14.3926 19.0369 13.7709 19.7157C13.1492 20.3945 13.1955 21.4488 13.8743 22.0705L16.5952 24.5624C17.2322 25.1459 18.2095 25.1459 18.8465 24.5624L26.1257 17.8958Z" fill="#0F973D"/>
</svg>
