<svg width="15" height="18" viewBox="0 0 15 18" fill="none" xmlns="http://www.w3.org/2000/svg">
<g id="Delete 2">
<g id="Vector">
<path fill-rule="evenodd" clip-rule="evenodd" d="M7.50065 0.0410156C5.31452 0.0410156 3.54232 1.81322 3.54232 3.99935V4.20768H0.833984C0.488806 4.20768 0.208984 4.4875 0.208984 4.83268C0.208984 5.17786 0.488806 5.45768 0.833984 5.45768H14.1673C14.5125 5.45768 14.7923 5.17786 14.7923 4.83268C14.7923 4.4875 14.5125 4.20768 14.1673 4.20768H11.459V3.99935C11.459 1.81322 9.68678 0.0410156 7.50065 0.0410156ZM7.50065 1.29102C8.99642 1.29102 10.209 2.50358 10.209 3.99935V4.20768H4.79232V3.99935C4.79232 2.50358 6.00488 1.29102 7.50065 1.29102Z" fill="#667185"/>
<path d="M2.28952 6.44023C2.25687 6.0966 1.95183 5.8445 1.6082 5.87715C1.26457 5.9098 1.01247 6.21484 1.04512 6.55847C1.12384 7.38703 1.26592 8.40794 1.44855 9.72023L1.68317 11.4061C1.90748 13.0184 2.03469 13.9328 2.3099 14.6818C2.82207 16.0759 3.73569 17.1934 4.9107 17.6892C5.54876 17.9585 6.27859 17.9582 7.36509 17.9577H7.63621C8.72271 17.9582 9.45254 17.9585 10.0906 17.6892C11.2656 17.1934 12.1792 16.0759 12.6914 14.6818C12.9666 13.9328 13.0938 13.0184 13.3181 11.4061L13.5527 9.72025C13.7354 8.40795 13.8775 7.38703 13.9562 6.55847C13.9888 6.21484 13.7367 5.9098 13.3931 5.87715C13.0495 5.8445 12.7444 6.0966 12.7118 6.44023C12.6359 7.23853 12.4977 8.23271 12.3126 9.56278L12.094 11.1336C11.8519 12.8733 11.741 13.644 11.5181 14.2507C11.0882 15.4209 10.3733 16.2132 9.60462 16.5375C9.22945 16.6959 8.77496 16.7077 7.50065 16.7077C6.22635 16.7077 5.77185 16.6959 5.39668 16.5375C4.62798 16.2132 3.91312 15.4209 3.48321 14.2507C3.26028 13.644 3.14941 12.8733 2.9073 11.1336L2.68869 9.56278C2.50358 8.23271 2.36537 7.23854 2.28952 6.44023Z" fill="#667185"/>
<path d="M6.45898 7.33268C6.45898 6.9875 6.17916 6.70768 5.83398 6.70768C5.48881 6.70768 5.20898 6.9875 5.20898 7.33268V13.9993C5.20898 14.3445 5.48881 14.6243 5.83398 14.6243C6.17916 14.6243 6.45898 14.3445 6.45898 13.9993V7.33268Z" fill="#667185"/>
<path d="M9.79232 7.33268C9.79232 6.9875 9.5125 6.70768 9.16732 6.70768C8.82214 6.70768 8.54232 6.9875 8.54232 7.33268V13.9993C8.54232 14.3445 8.82214 14.6243 9.16732 14.6243C9.5125 14.6243 9.79232 14.3445 9.79232 13.9993V7.33268Z" fill="#667185"/>
</g>
</g>
</svg>
