<svg width="42" height="42" viewBox="0 0 42 42" fill="none" xmlns="http://www.w3.org/2000/svg">
<rect x="0.5" y="0.5" width="41" height="41" rx="20.5" stroke="#E7E9FB"/>
<path fill-rule="evenodd" clip-rule="evenodd" d="M12 13.5C12 13.1022 12.158 12.7206 12.4393 12.4393C12.7206 12.158 13.1022 12 13.5 12H28.5C28.8978 12 29.2794 12.158 29.5607 12.4393C29.842 12.7206 30 13.1022 30 13.5V28.5C30 28.8978 29.842 29.2794 29.5607 29.5607C29.2794 29.842 28.8978 30 28.5 30H13.5C13.1022 30 12.7206 29.842 12.4393 29.5607C12.158 29.2794 12 28.8978 12 28.5V13.5ZM18.5 15H17C16.7348 15 16.4804 15.1054 16.2929 15.2929C16.1054 15.4804 16 15.7348 16 16V27C16 27.2652 16.1054 27.5196 16.2929 27.7071C16.4804 27.8946 16.7348 28 17 28H25C25.2652 28 25.5196 27.8946 25.7071 27.7071C25.8946 27.5196 26 27.2652 26 27V16C26 15.7348 25.8946 15.4804 25.7071 15.2929C25.5196 15.1054 25.2652 15 25 15H23.5C23.5 14.7348 23.3946 14.4804 23.2071 14.2929C23.0196 14.1054 22.7652 14 22.5 14H19.5C19.2348 14 18.9804 14.1054 18.7929 14.2929C18.6054 14.4804 18.5 14.7348 18.5 15ZM20.032 26.325L21.279 23H19.5C19.3674 23 19.2402 22.9473 19.1464 22.8536C19.0527 22.7598 19 22.6326 19 22.5C19 22.3674 19.0527 22.2402 19.1464 22.1464C19.2402 22.0527 19.3674 22 19.5 22H24.65C24.7826 22 24.9098 22.0527 25.0036 22.1464C25.0973 22.2402 25.15 22.3674 25.15 22.5C25.15 22.6326 25.0973 22.7598 25.0036 22.8536C24.9098 22.9473 24.7826 23 24.65 23H23.222L24.468 26.325C24.5087 26.4478 24.5003 26.5816 24.4445 26.6983C24.3886 26.815 24.2897 26.9055 24.1686 26.9508C24.0474 26.9961 23.9134 26.9927 23.7947 26.9412C23.676 26.8898 23.5818 26.7944 23.532 26.675L22.902 24.998H21.597L20.968 26.676C20.919 26.7968 20.8248 26.8936 20.7055 26.946C20.5862 26.9983 20.4511 27.002 20.3291 26.9563C20.2071 26.9105 20.1077 26.8189 20.0523 26.701C19.9968 26.5831 19.9895 26.4482 20.032 26.325ZM17.5 18.62H24.5V17.62H17.5V18.62ZM20 20.7H17.5V19.7H20V20.7ZM22.25 21.5C22.5152 21.5 22.7696 21.3946 22.9571 21.2071C23.1446 21.0196 23.25 20.7652 23.25 20.5C23.25 20.2348 23.1446 19.9804 22.9571 19.7929C22.7696 19.6054 22.5152 19.5 22.25 19.5C21.9848 19.5 21.7304 19.6054 21.5429 19.7929C21.3554 19.9804 21.25 20.2348 21.25 20.5C21.25 20.7652 21.3554 21.0196 21.5429 21.2071C21.7304 21.3946 21.9848 21.5 22.25 21.5ZM19.5 15H22.5V16H19.5V15Z" fill="#667185"/>
</svg>
