<svg width="21" height="20" viewBox="0 0 21 20" fill="none" xmlns="http://www.w3.org/2000/svg">
<g id="health-record">
<path id="Vector" d="M16.9177 13.6281L16.5639 13.9819L14.8977 15.6481L16.9177 13.6281ZM16.9177 13.6281L16.5637 13.2745M16.9177 13.6281L16.5637 13.2745M16.5637 13.2745L15.9737 12.6854L15.6201 12.3323L15.2668 12.6856L14.2484 13.704L14.0628 13.5187L13.7093 13.1657L13.356 13.5189L12.7668 14.1081L12.4133 14.4617M16.5637 13.2745L12.4133 14.4617M12.4133 14.4617L12.7668 14.8152M12.4133 14.4617L12.7668 14.8152M12.7668 14.8152L13.5997 15.6481L12.7668 14.8152ZM14.6 15.8474C14.4887 15.8936 14.3693 15.9174 14.2487 15.9174C14.1281 15.9174 14.0087 15.8936 13.8974 15.8474C13.7862 15.8013 13.6852 15.7337 13.6001 15.6486L14.6 15.8474ZM14.6 15.8474C14.7112 15.8013 14.8122 15.7337 14.8973 15.6486L14.6 15.8474ZM14.96 3.87204C14.8819 3.7939 14.7759 3.75 14.6654 3.75H13.9154H13.4154L14.96 3.87204ZM12.2487 14.4951V14.495V11.75H17.082V14.495V14.495C17.0821 14.8928 16.9839 15.2845 16.7962 15.6352C16.6086 15.9859 16.3373 16.2849 16.0063 16.5056C16.0063 16.5057 16.0063 16.5057 16.0063 16.5057L14.6654 17.3996L13.3252 16.5064L13.3251 16.5064C12.994 16.2857 12.7224 15.9866 12.5347 15.6358C12.3469 15.2849 12.2486 14.893 12.2487 14.4951Z" fill="#344054" stroke="#344054"/>
</g>
</svg>
