<svg width="42" height="42" viewBox="0 0 42 42" fill="none" xmlns="http://www.w3.org/2000/svg">
<rect x="0.5" y="0.5" width="41" height="41" rx="20.5" stroke="#E7E9FB"/>
<path d="M26 12.5H16V17.5H26V12.5Z" stroke="#667185" stroke-width="1.3" stroke-linecap="round" stroke-linejoin="round"/>
<path fill-rule="evenodd" clip-rule="evenodd" d="M29.5 17.5H12.5C12.2348 17.5 11.9804 17.6054 11.7929 17.7929C11.6054 17.9804 11.5 18.2348 11.5 18.5V28.5C11.5 28.7652 11.6054 29.0196 11.7929 29.2071C11.9804 29.3946 12.2348 29.5 12.5 29.5H29.5C29.7652 29.5 30.0196 29.3946 30.2071 29.2071C30.3946 29.0196 30.5 28.7652 30.5 28.5V18.5C30.5 18.2348 30.3946 17.9804 30.2071 17.7929C30.0196 17.6054 29.7652 17.5 29.5 17.5ZM17.35 23.5C17.35 22.8649 17.8649 22.35 18.5 22.35H19.85V21C19.85 20.3649 20.3649 19.85 21 19.85C21.6351 19.85 22.15 20.3649 22.15 21V22.35H23.5C24.1351 22.35 24.65 22.8649 24.65 23.5C24.65 24.1351 24.1351 24.65 23.5 24.65H22.15V26C22.15 26.6351 21.6351 27.15 21 27.15C20.3649 27.15 19.85 26.6351 19.85 26V24.65H18.5C17.8649 24.65 17.35 24.1351 17.35 23.5Z" fill="#667185"/>
<path d="M11.7929 17.7929L12.2525 18.2525V18.2525L11.7929 17.7929ZM11.7929 29.2071L12.2525 28.7475L11.7929 29.2071ZM30.2071 17.7929L29.7475 18.2525L30.2071 17.7929ZM19.85 22.35V23C20.209 23 20.5 22.709 20.5 22.35H19.85ZM22.15 22.35H21.5C21.5 22.709 21.791 23 22.15 23V22.35ZM22.15 24.65V24C21.791 24 21.5 24.291 21.5 24.65H22.15ZM19.85 24.65H20.5C20.5 24.291 20.209 24 19.85 24V24.65ZM12.5 18.15H29.5V16.85H12.5V18.15ZM12.2525 18.2525C12.3182 18.1869 12.4072 18.15 12.5 18.15V16.85C12.0624 16.85 11.6427 17.0238 11.3333 17.3333L12.2525 18.2525ZM12.15 18.5C12.15 18.4072 12.1869 18.3182 12.2525 18.2525L11.3333 17.3333C11.0238 17.6427 10.85 18.0624 10.85 18.5H12.15ZM12.15 28.5V18.5H10.85V28.5H12.15ZM12.2525 28.7475C12.1869 28.6819 12.15 28.5928 12.15 28.5H10.85C10.85 28.9376 11.0238 29.3573 11.3333 29.6667L12.2525 28.7475ZM12.5 28.85C12.4072 28.85 12.3181 28.8131 12.2525 28.7475L11.3333 29.6667C11.6427 29.9762 12.0624 30.15 12.5 30.15V28.85ZM29.5 28.85H12.5V30.15H29.5V28.85ZM29.7475 28.7475C29.6819 28.8131 29.5928 28.85 29.5 28.85V30.15C29.9376 30.15 30.3573 29.9762 30.6667 29.6667L29.7475 28.7475ZM29.85 28.5C29.85 28.5928 29.8131 28.6819 29.7475 28.7475L30.6667 29.6667C30.9762 29.3573 31.15 28.9376 31.15 28.5H29.85ZM29.85 18.5V28.5H31.15V18.5H29.85ZM29.7475 18.2525C29.8131 18.3181 29.85 18.4072 29.85 18.5H31.15C31.15 18.0624 30.9762 17.6427 30.6667 17.3333L29.7475 18.2525ZM29.5 18.15C29.5928 18.15 29.6819 18.1869 29.7475 18.2525L30.6667 17.3333C30.3573 17.0238 29.9376 16.85 29.5 16.85V18.15ZM18.5 21.7C17.5059 21.7 16.7 22.5059 16.7 23.5H18C18 23.2239 18.2239 23 18.5 23V21.7ZM19.85 21.7H18.5V23H19.85V21.7ZM20.5 22.35V21H19.2V22.35H20.5ZM20.5 21C20.5 20.7239 20.7239 20.5 21 20.5V19.2C20.0059 19.2 19.2 20.0059 19.2 21H20.5ZM21 20.5C21.2761 20.5 21.5 20.7239 21.5 21H22.8C22.8 20.0059 21.9941 19.2 21 19.2V20.5ZM21.5 21V22.35H22.8V21H21.5ZM23.5 21.7H22.15V23H23.5V21.7ZM25.3 23.5C25.3 22.5059 24.4941 21.7 23.5 21.7V23C23.7761 23 24 23.2239 24 23.5H25.3ZM23.5 25.3C24.4941 25.3 25.3 24.4941 25.3 23.5H24C24 23.7761 23.7761 24 23.5 24V25.3ZM22.15 25.3H23.5V24H22.15V25.3ZM21.5 24.65V26H22.8V24.65H21.5ZM21.5 26C21.5 26.2761 21.2761 26.5 21 26.5V27.8C21.9941 27.8 22.8 26.9941 22.8 26H21.5ZM21 26.5C20.7239 26.5 20.5 26.2761 20.5 26H19.2C19.2 26.9941 20.0059 27.8 21 27.8V26.5ZM20.5 26V24.65H19.2V26H20.5ZM18.5 25.3H19.85V24H18.5V25.3ZM16.7 23.5C16.7 24.4941 17.5059 25.3 18.5 25.3V24C18.2239 24 18 23.7761 18 23.5H16.7Z" fill="#667185"/>
</svg>
