<svg width="40" height="40" viewBox="0 0 40 40" fill="none" xmlns="http://www.w3.org/2000/svg">
<rect width="40" height="40" rx="20" fill="#16B364"/>
<path d="M22.25 29H17.75C17.3523 28.9995 16.9711 28.8413 16.6899 28.5601C16.4087 28.2789 16.2505 27.8977 16.25 27.5V23.75H12.5C12.1023 23.7495 11.7211 23.5913 11.4399 23.3101C11.1587 23.0289 11.0005 22.6477 11 22.25V17.75C11.0005 17.3523 11.1587 16.9711 11.4399 16.6899C11.7211 16.4087 12.1023 16.2505 12.5 16.25H16.25V12.5C16.2505 12.1023 16.4087 11.7211 16.6899 11.4399C16.9711 11.1587 17.3523 11.0005 17.75 11H22.25C22.6477 11.0005 23.0289 11.1587 23.3101 11.4399C23.5913 11.7211 23.7495 12.1023 23.75 12.5V16.25H27.5C27.8977 16.2505 28.2789 16.4087 28.5601 16.6899C28.8413 16.9711 28.9995 17.3523 29 17.75V22.25C28.9995 22.6477 28.8413 23.0289 28.5601 23.3101C28.2789 23.5913 27.8977 23.7495 27.5 23.75H23.75V27.5C23.7495 27.8977 23.5913 28.2789 23.3101 28.5601C23.0289 28.8413 22.6477 28.9995 22.25 29ZM12.5 17.75V22.25H17.75V27.5H22.25V22.25H27.5V17.75H22.25V12.5H17.75V17.75H12.5Z" fill="#F6FEF9"/>
<path d="M12.5 17.75V22.25H17.75V27.5H22.25V22.25H27.5V17.75H22.25V12.5H17.75V17.75H12.5Z" fill="#F6FEF9"/>
</svg>
