<svg width="20" height="20" viewBox="0 0 20 20" fill="none" xmlns="http://www.w3.org/2000/svg">
<g id="Teeny icon / more-vertical">
<g id="Vector">
<path d="M9.99969 4.00029C9.63149 4.00029 9.33301 3.7018 9.33301 3.33361C9.33301 2.96541 9.63149 2.66693 9.99969 2.66693C10.3679 2.66693 10.6664 2.96541 10.6664 3.33361C10.6664 3.7018 10.3679 4.00029 9.99969 4.00029Z" stroke="#545C68" stroke-width="1.33336"/>
<path d="M9.99969 10.6671C9.63149 10.6671 9.33301 10.3686 9.33301 10.0004C9.33301 9.63221 9.63149 9.33373 9.99969 9.33373C10.3679 9.33373 10.6664 9.63221 10.6664 10.0004C10.6664 10.3686 10.3679 10.6671 9.99969 10.6671Z" stroke="#545C68" stroke-width="1.33336"/>
<path d="M9.99969 17.3339C9.63149 17.3339 9.33301 17.0354 9.33301 16.6672C9.33301 16.299 9.63149 16.0005 9.99969 16.0005C10.3679 16.0005 10.6664 16.299 10.6664 16.6672C10.6664 17.0354 10.3679 17.3339 9.99969 17.3339Z" stroke="#545C68" stroke-width="1.33336"/>
</g>
</g>
</svg>
