<svg width="21" height="20" viewBox="0 0 21 20" fill="none" xmlns="http://www.w3.org/2000/svg">
<g id="birth-record">
<g id="Vector">
<mask id="path-1-inside-1_3348_146703" fill="white">
<path fill-rule="evenodd" clip-rule="evenodd" d="M13 5.00083C13 6.35333 11.8808 7.45 10.5 7.45C9.11917 7.45 8 6.35333 8 5.00083C8 3.64833 9.11917 2.55167 10.5 2.55167C11.8808 2.55167 13 3.6475 13 5.00083ZM10.5 6.63417C11.4208 6.63417 12.1667 5.9025 12.1667 5.00083C12.1667 4.09917 11.4208 3.36833 10.5 3.36833C9.57917 3.36833 8.83333 4.09917 8.83333 5.00167C8.83333 5.9025 9.57917 6.63333 10.5 6.63333V6.63417Z"/>
</mask>
<path fill-rule="evenodd" clip-rule="evenodd" d="M13 5.00083C13 6.35333 11.8808 7.45 10.5 7.45C9.11917 7.45 8 6.35333 8 5.00083C8 3.64833 9.11917 2.55167 10.5 2.55167C11.8808 2.55167 13 3.6475 13 5.00083ZM10.5 6.63417C11.4208 6.63417 12.1667 5.9025 12.1667 5.00083C12.1667 4.09917 11.4208 3.36833 10.5 3.36833C9.57917 3.36833 8.83333 4.09917 8.83333 5.00167C8.83333 5.9025 9.57917 6.63333 10.5 6.63333V6.63417Z" fill="#344054"/>
<path d="M10.5 6.63417H9.5V7.63417H10.5V6.63417ZM10.5 6.63333H11.5V5.63333H10.5V6.63333ZM12 5.00083C12 5.78185 11.3479 6.45 10.5 6.45V8.45C12.4137 8.45 14 6.92482 14 5.00083H12ZM10.5 6.45C9.65205 6.45 9 5.78185 9 5.00083H7C7 6.92482 8.58628 8.45 10.5 8.45V6.45ZM9 5.00083C9 4.21982 9.65205 3.55167 10.5 3.55167V1.55167C8.58628 1.55167 7 3.07685 7 5.00083H9ZM10.5 3.55167C11.3482 3.55167 12 4.2192 12 5.00083H14C14 3.0758 12.4135 1.55167 10.5 1.55167V3.55167ZM10.5 7.63417C11.9543 7.63417 13.1667 6.47344 13.1667 5.00083H11.1667C11.1667 5.33156 10.8874 5.63417 10.5 5.63417V7.63417ZM13.1667 5.00083C13.1667 3.52757 11.9536 2.36833 10.5 2.36833V4.36833C10.8881 4.36833 11.1667 4.67076 11.1667 5.00083H13.1667ZM10.5 2.36833C9.04606 2.36833 7.83333 3.5279 7.83333 5.00167H9.83333C9.83333 4.67043 10.1123 4.36833 10.5 4.36833V2.36833ZM7.83333 5.00167C7.83333 6.47442 9.04673 7.63333 10.5 7.63333V5.63333C10.1116 5.63333 9.83333 5.33057 9.83333 5.00167H7.83333ZM9.5 6.63333V6.63417H11.5V6.63333H9.5Z" fill="#344054" mask="url(#path-1-inside-1_3348_146703)"/>
</g>
<path id="Vector_2" fill-rule="evenodd" clip-rule="evenodd" d="M14.0133 6.67417C14.0837 6.70676 14.1433 6.75871 14.1852 6.82394C14.2271 6.88916 14.2496 6.96497 14.25 7.0425V13.9983C14.25 14.8917 13.9642 15.805 13.3392 16.5008C12.7058 17.2058 11.7558 17.6542 10.5 17.6542C7.91333 17.6542 6.75 15.5458 6.75 13.9983V7.04167C6.75036 6.96519 6.77218 6.89035 6.81299 6.82567C6.8538 6.761 6.91196 6.70908 6.98083 6.67583C7.05036 6.64209 7.12778 6.62798 7.20474 6.63503C7.28169 6.64208 7.35526 6.67002 7.4175 6.71583C8.75417 7.70333 9.70083 8.1275 10.5725 8.125C11.44 8.12333 12.3358 7.69917 13.5725 6.72333C13.6342 6.67503 13.708 6.64479 13.7858 6.63596C13.8637 6.62713 13.9424 6.6409 14.0133 6.67417ZM7.58333 8.06167V13.9983C7.58333 15.2342 8.50417 16.8383 10.5 16.8383C11.5367 16.8383 12.2525 16.475 12.7133 15.9617C13.0708 15.5633 13.2917 15.0558 13.3767 14.5133C13.3223 14.4738 13.2785 14.4214 13.2492 14.3608C12.6225 13.0775 11.4608 11.6508 10.23 10.4025C9.29417 9.4525 8.33833 8.62667 7.58333 8.06167ZM13.4167 12.9808C12.72 11.8967 11.7808 10.8 10.8292 9.835C10.5025 9.50366 10.1677 9.1805 9.825 8.86583C10.075 8.91667 10.325 8.9425 10.575 8.9425C11.525 8.94 12.425 8.55417 13.4167 7.865V12.9817V12.9808Z" fill="black"/>
</g>
</svg>
