<svg width="16" height="16" viewBox="0 0 16 16" fill="none" xmlns="http://www.w3.org/2000/svg">
<g id="icon / building-5">
<g id="icon">
<path d="M6.33366 4.66667C6.33366 5.03486 6.03518 5.33333 5.66699 5.33333H5.00033C4.63214 5.33333 4.33366 5.03486 4.33366 4.66667C4.33366 4.29848 4.63214 4 5.00033 4H5.66699C6.03518 4 6.33366 4.29848 6.33366 4.66667Z" fill="#344054"/>
<path d="M8.33366 7.33333C8.70185 7.33333 9.00033 7.03486 9.00033 6.66667C9.00033 6.29848 8.70185 6 8.33366 6H7.66699C7.2988 6 7.00033 6.29848 7.00033 6.66667C7.00033 7.03486 7.2988 7.33333 7.66699 7.33333H8.33366Z" fill="#344054"/>
<path d="M6.33366 8.66667C6.33366 9.03486 6.03518 9.33333 5.66699 9.33333H5.00033C4.63214 9.33333 4.33366 9.03486 4.33366 8.66667C4.33366 8.29848 4.63214 8 5.00033 8H5.66699C6.03518 8 6.33366 8.29848 6.33366 8.66667Z" fill="#344054"/>
<path d="M8.33366 5.33333C8.70185 5.33333 9.00033 5.03486 9.00033 4.66667C9.00033 4.29848 8.70185 4 8.33366 4H7.66699C7.2988 4 7.00033 4.29848 7.00033 4.66667C7.00033 5.03486 7.2988 5.33333 7.66699 5.33333H8.33366Z" fill="#344054"/>
<path d="M6.33366 6.66667C6.33366 7.03486 6.03518 7.33333 5.66699 7.33333H5.00033C4.63214 7.33333 4.33366 7.03486 4.33366 6.66667C4.33366 6.29848 4.63214 6 5.00033 6H5.66699C6.03518 6 6.33366 6.29848 6.33366 6.66667Z" fill="#344054"/>
<path d="M8.33366 9.33333C8.70185 9.33333 9.00033 9.03486 9.00033 8.66667C9.00033 8.29848 8.70185 8 8.33366 8H7.66699C7.2988 8 7.00033 8.29848 7.00033 8.66667C7.00033 9.03486 7.2988 9.33333 7.66699 9.33333H8.33366Z" fill="#344054"/>
<path d="M6.33366 10.6667C6.33366 11.0349 6.03518 11.3333 5.66699 11.3333H5.00033C4.63214 11.3333 4.33366 11.0349 4.33366 10.6667C4.33366 10.2985 4.63214 10 5.00033 10H5.66699C6.03518 10 6.33366 10.2985 6.33366 10.6667Z" fill="#344054"/>
<path d="M8.33366 11.3333C8.70185 11.3333 9.00033 11.0349 9.00033 10.6667C9.00033 10.2985 8.70185 10 8.33366 10H7.66699C7.2988 10 7.00033 10.2985 7.00033 10.6667C7.00033 11.0349 7.2988 11.3333 7.66699 11.3333H8.33366Z" fill="#344054"/>
<path fill-rule="evenodd" clip-rule="evenodd" d="M2.66699 3.33333C2.66699 2.59695 3.26395 2 4.00033 2H9.33366C10.07 2 10.667 2.59695 10.667 3.33333V6H12.667C13.4034 6 14.0003 6.59695 14.0003 7.33333V12.6667H14.667C15.0352 12.6667 15.3337 12.9651 15.3337 13.3333C15.3337 13.7015 15.0352 14 14.667 14H1.33366C0.965469 14 0.666992 13.7015 0.666992 13.3333C0.666992 12.9651 0.965469 12.6667 1.33366 12.6667H2.66699V3.33333ZM4.00033 12.6667H9.33366V3.33333H4.00033V12.6667ZM12.667 10V9.33333H12.3337C11.9655 9.33333 11.667 9.03486 11.667 8.66667C11.667 8.29848 11.9655 8 12.3337 8H12.667V7.33333H10.667V12.6667H12.667V11.3333H12.3337C11.9655 11.3333 11.667 11.0349 11.667 10.6667C11.667 10.2985 11.9655 10 12.3337 10H12.667Z" fill="#344054"/>
</g>
</g>
</svg>
