<svg width="24" height="25" viewBox="0 0 24 25" fill="none" xmlns="http://www.w3.org/2000/svg">
<path fill-rule="evenodd" clip-rule="evenodd" d="M12 1.41602C9.37665 1.41602 7.25 3.54266 7.25 6.16602V6.41602H4C3.58579 6.41602 3.25 6.7518 3.25 7.16602C3.25 7.58023 3.58579 7.91602 4 7.91602H20C20.4142 7.91602 20.75 7.58023 20.75 7.16602C20.75 6.7518 20.4142 6.41602 20 6.41602H16.75V6.16602C16.75 3.54266 14.6234 1.41602 12 1.41602ZM12 2.91602C13.7949 2.91602 15.25 4.37109 15.25 6.16602V6.41602H8.75V6.16602C8.75 4.37109 10.2051 2.91602 12 2.91602Z" fill="#667185"/>
<path d="M5.74664 9.09508C5.70746 8.68272 5.34142 8.3802 4.92906 8.41938C4.5167 8.45856 4.21418 8.8246 4.25336 9.23696C4.34783 10.2312 4.51833 11.4563 4.73748 13.0311L5.01903 15.0542C5.28819 16.9889 5.44085 18.0861 5.77109 18.985C6.3857 20.6578 7.48205 21.9988 8.89206 22.5938C9.65773 22.9169 10.5335 22.9166 11.8373 22.9161H12.1627C13.4665 22.9166 14.3423 22.9169 15.1079 22.5938C16.5179 21.9988 17.6143 20.6578 18.2289 18.985C18.5592 18.0861 18.7118 16.9889 18.981 15.0541L19.2625 13.0311C19.4817 11.4563 19.6522 10.2312 19.7466 9.23696C19.7858 8.8246 19.4833 8.45856 19.0709 8.41938C18.6586 8.3802 18.2925 8.68272 18.2534 9.09507C18.1623 10.053 17.9965 11.246 17.7744 12.8421L17.512 14.7272C17.2215 16.8148 17.0884 17.7396 16.8209 18.4677C16.305 19.8718 15.4472 20.8226 14.5248 21.2119C14.0746 21.4018 13.5292 21.416 12 21.416C10.4708 21.416 9.92544 21.4018 9.47524 21.2119C8.55279 20.8226 7.69496 19.8718 7.17907 18.4677C6.91156 17.7396 6.77851 16.8148 6.48798 14.7272L6.22564 12.8421C6.00352 11.246 5.83766 10.053 5.74664 9.09508Z" fill="#667185"/>
<path d="M10.75 10.166C10.75 9.7518 10.4142 9.41602 10 9.41602C9.58579 9.41602 9.25 9.7518 9.25 10.166V18.166C9.25 18.5802 9.58579 18.916 10 18.916C10.4142 18.916 10.75 18.5802 10.75 18.166V10.166Z" fill="#667185"/>
<path d="M14.75 10.166C14.75 9.7518 14.4142 9.41602 14 9.41602C13.5858 9.41602 13.25 9.7518 13.25 10.166V18.166C13.25 18.5802 13.5858 18.916 14 18.916C14.4142 18.916 14.75 18.5802 14.75 18.166V10.166Z" fill="#667185"/>
</svg>
