<svg width="48" height="48" viewBox="0 0 48 48" fill="none" xmlns="http://www.w3.org/2000/svg">
<rect width="48" height="48" rx="24" fill="#FBEAE9"/>
<path d="M24.0006 22.5C24.1663 22.5 24.3006 22.6343 24.3006 22.8V30C24.3006 30.1657 24.1663 30.3 24.0006 30.3C23.8349 30.3 23.7006 30.1657 23.7006 30V22.8C23.7006 22.6343 23.8349 22.5 24.0006 22.5ZM11.7006 24C11.7006 17.2069 17.2075 11.7 24.0006 11.7C30.7937 11.7 36.3006 17.2069 36.3006 24C36.3006 30.7931 30.7937 36.3 24.0006 36.3C17.2075 36.3 11.7006 30.7931 11.7006 24ZM24.0006 12.3C17.5389 12.3 12.3006 17.5383 12.3006 24C12.3006 30.4617 17.5389 35.7 24.0006 35.7C30.4623 35.7 35.7006 30.4617 35.7006 24C35.7006 17.5383 30.4623 12.3 24.0006 12.3ZM24.6006 19.2C24.6006 19.5314 24.332 19.8 24.0006 19.8C23.6692 19.8 23.4006 19.5314 23.4006 19.2C23.4006 18.8686 23.6692 18.6 24.0006 18.6C24.332 18.6 24.6006 18.8686 24.6006 19.2Z" fill="#2D264B" stroke="#CB1A14" stroke-width="1.2"/>
</svg>
