<svg width="49" height="48" viewBox="0 0 49 48" fill="none" xmlns="http://www.w3.org/2000/svg">
<rect x="0.5" width="48" height="48" rx="24" fill="#FBEAE9"/>
<path d="M32.321 24.9354L33.2124 25.0594L33.2124 25.0594L32.321 24.9354ZM32.0062 27.1974L32.8976 27.3215L32.8976 27.3215L32.0062 27.1974ZM16.9946 27.1974L17.886 27.0734L17.886 27.0734L16.9946 27.1974ZM16.6798 24.9354L15.7883 25.0595L15.7883 25.0595L16.6798 24.9354ZM21.1208 35.6842L20.7709 36.5134L20.7709 36.5134L21.1208 35.6842ZM17.8705 31.8724L18.7153 31.562L18.7153 31.562L17.8705 31.8724ZM31.1303 31.8724L31.9751 32.1828L31.9751 32.1828L31.1303 31.8724ZM27.88 35.6842L27.5301 34.855L27.5301 34.855L27.88 35.6842ZM16.9964 20.3149C16.9493 19.82 16.5101 19.457 16.0153 19.504C15.5204 19.5511 15.1574 19.9903 15.2044 20.4851L16.9964 20.3149ZM33.7964 20.4851C33.8434 19.9903 33.4803 19.5511 32.9855 19.504C32.4907 19.457 32.0514 19.82 32.0044 20.3149L33.7964 20.4851ZM34.1004 18.9C34.5974 18.9 35.0004 18.4971 35.0004 18C35.0004 17.5029 34.5974 17.1 34.1004 17.1V18.9ZM14.9004 17.1C14.4033 17.1 14.0004 17.5029 14.0004 18C14.0004 18.4971 14.4033 18.9 14.9004 18.9V17.1ZM21.2004 31.2C21.2004 31.6971 21.6033 32.1 22.1004 32.1C22.5974 32.1 23.0004 31.6971 23.0004 31.2H21.2004ZM23.0004 21.6C23.0004 21.1029 22.5974 20.7 22.1004 20.7C21.6033 20.7 21.2004 21.1029 21.2004 21.6H23.0004ZM26.0004 31.2C26.0004 31.6971 26.4033 32.1 26.9004 32.1C27.3974 32.1 27.8004 31.6971 27.8004 31.2H26.0004ZM27.8004 21.6C27.8004 21.1029 27.3974 20.7 26.9004 20.7C26.4033 20.7 26.0004 21.1029 26.0004 21.6H27.8004ZM29.3004 18V18.9H30.2004V18H29.3004ZM19.7004 18H18.8004V18.9H19.7004V18ZM31.4296 24.8113L31.1148 27.0734L32.8976 27.3215L33.2124 25.0594L31.4296 24.8113ZM17.886 27.0734L17.5712 24.8113L15.7883 25.0595L16.1031 27.3215L17.886 27.0734ZM24.5004 35.1C22.6654 35.1 22.0109 35.083 21.4707 34.855L20.7709 36.5134C21.7274 36.917 22.8271 36.9 24.5004 36.9V35.1ZM16.1031 27.3215C16.4388 29.7333 16.6213 31.082 17.0257 32.1828L18.7153 31.562C18.3943 30.6883 18.2346 29.5785 17.886 27.0734L16.1031 27.3215ZM21.4707 34.855C20.3637 34.3879 19.3343 33.247 18.7153 31.562L17.0257 32.1828C17.7632 34.1902 19.0789 35.7994 20.7709 36.5134L21.4707 34.855ZM31.1148 27.0734C30.7662 29.5785 30.6065 30.6883 30.2855 31.562L31.9751 32.1828C32.3795 31.082 32.562 29.7333 32.8976 27.3215L31.1148 27.0734ZM24.5004 36.9C26.1737 36.9 27.2734 36.917 28.2299 36.5134L27.5301 34.855C26.9899 35.083 26.3354 35.1 24.5004 35.1V36.9ZM30.2855 31.562C29.6664 33.247 28.637 34.3879 27.5301 34.855L28.2299 36.5134C29.9219 35.7994 31.2375 34.1902 31.9751 32.1828L30.2855 31.562ZM17.5712 24.8113C17.3046 22.896 17.1056 21.4644 16.9964 20.3149L15.2044 20.4851C15.3182 21.6828 15.5239 23.1595 15.7883 25.0595L17.5712 24.8113ZM33.2124 25.0594C33.4769 23.1595 33.6826 21.6828 33.7964 20.4851L32.0044 20.3149C31.8952 21.4644 31.6962 22.896 31.4296 24.8113L33.2124 25.0594ZM34.1004 17.1H14.9004V18.9H34.1004V17.1ZM23.0004 31.2V21.6H21.2004V31.2H23.0004ZM27.8004 31.2V21.6H26.0004V31.2H27.8004ZM28.4004 16.8V18H30.2004V16.8H28.4004ZM29.3004 17.1H19.7004V18.9H29.3004V17.1ZM20.6004 18V16.8H18.8004V18H20.6004ZM24.5004 12.9C26.6543 12.9 28.4004 14.6461 28.4004 16.8H30.2004C30.2004 13.652 27.6484 11.1 24.5004 11.1V12.9ZM24.5004 11.1C21.3524 11.1 18.8004 13.652 18.8004 16.8H20.6004C20.6004 14.6461 22.3465 12.9 24.5004 12.9V11.1Z" fill="#CB1A14"/>
</svg>
