<svg width="21" height="21" viewBox="0 0 21 21" fill="none" xmlns="http://www.w3.org/2000/svg">
<g id="Edit 2">
<g id="Vector">
<path fill-rule="evenodd" clip-rule="evenodd" d="M13.359 1.67532L13.4641 1.73599C14.3719 2.26007 15.1289 2.69709 15.6832 3.12485C16.2682 3.57634 16.7326 4.09457 16.9271 4.82045C17.1216 5.54633 16.9785 6.22731 16.6976 6.91084C16.4315 7.55843 15.9944 8.3154 15.4702 9.22317L10.9488 17.0547C10.6024 17.6558 10.3284 18.1312 9.91153 18.4894C9.49461 18.8476 8.98344 19.0469 8.33696 19.2988L8.16226 19.367C6.96267 19.8357 5.97385 20.2221 5.16412 20.4113C4.31725 20.6091 3.49958 20.6337 2.73743 20.1937C1.97527 19.7537 1.58776 19.0333 1.33568 18.2009C1.09465 17.4051 0.934834 16.3556 0.740952 15.0823L0.712651 14.8969C0.607617 14.2111 0.524565 13.6688 0.626339 13.1286C0.639061 13.0611 0.654485 12.9946 0.672415 12.9287C0.797926 12.4678 1.04624 12.0385 1.35024 11.5129L5.87179 3.68151C6.39587 2.7737 6.83289 2.01671 7.26064 1.46241C7.71213 0.877344 8.23036 0.412978 8.95624 0.218479C9.68212 0.0239797 10.3631 0.167019 11.0466 0.447952C11.6942 0.714113 12.4512 1.15118 13.359 1.67532ZM6.9195 5.36682L13.4869 9.15849L9.49285 16.0763C9.05773 16.83 8.93332 17.0227 8.77105 17.1621C8.60878 17.3015 8.39954 17.3955 7.58897 17.7122C6.30976 18.212 5.43853 18.55 4.76598 18.7072C4.11629 18.859 3.82149 18.7989 3.61242 18.6782C3.40336 18.5575 3.20394 18.3322 3.01055 17.6937C2.81035 17.0326 2.66751 16.1091 2.46073 14.7514C2.3297 13.8911 2.30647 13.6629 2.34608 13.4526C2.38569 13.2424 2.49037 13.0383 2.92549 12.2847L6.9195 5.36682ZM15.079 6.24559C14.9244 6.62177 14.6879 7.06408 14.36 7.64189L7.79633 3.85234C8.13278 3.27946 8.39761 2.85353 8.64608 2.53155C8.97795 2.1015 9.20149 1.9645 9.40918 1.90885C9.61686 1.8532 9.87895 1.86007 10.3814 2.06657C10.9073 2.28273 11.5625 2.65886 12.5365 3.2212C13.5105 3.78354 14.1639 4.1629 14.614 4.51028C15.0441 4.84215 15.1811 5.06569 15.2367 5.27338C15.2924 5.48106 15.2855 5.74316 15.079 6.24559Z" fill="#667185"/>
<path d="M11.7688 19.7917C11.7688 19.3084 12.1606 18.9167 12.6438 18.9167H19.6438C20.127 18.9167 20.5188 19.3084 20.5188 19.7917C20.5188 20.2749 20.127 20.6667 19.6438 20.6667H12.6438C12.1606 20.6667 11.7688 20.2749 11.7688 19.7917Z" fill="#667185"/>
</g>
</g>
</svg>
