<svg width="40" height="40" viewBox="0 0 40 40" fill="none" xmlns="http://www.w3.org/2000/svg">
<rect x="0.5" y="0.5" width="39" height="39" rx="19.5" fill="white"/>
<rect x="0.5" y="0.5" width="39" height="39" rx="19.5" stroke="#E4E7EC"/>
<path d="M20.8338 11.6667C20.8338 11.2064 20.4607 10.8333 20.0005 10.8333C19.5402 10.8333 19.1671 11.2064 19.1671 11.6667V12.9167C19.1671 13.3769 19.5402 13.75 20.0005 13.75C20.4607 13.75 20.8338 13.3769 20.8338 12.9167V11.6667Z" fill="black"/>
<path fill-rule="evenodd" clip-rule="evenodd" d="M14.1671 20C14.1671 16.7783 16.7788 14.1667 20.0005 14.1667C23.2221 14.1667 25.8338 16.7783 25.8338 20C25.8338 23.2217 23.2221 25.8333 20.0005 25.8333C16.7788 25.8333 14.1671 23.2217 14.1671 20ZM20.0005 15.8333C17.6993 15.8333 15.8338 17.6988 15.8338 20C15.8338 22.3012 17.6993 24.1667 20.0005 24.1667C22.3017 24.1667 24.1671 22.3012 24.1671 20C24.1671 17.6988 22.3017 15.8333 20.0005 15.8333Z" fill="black"/>
<path d="M20.0005 25.8333C20.4607 25.8333 20.8338 26.2064 20.8338 26.6667V27.9167C20.8338 28.3769 20.4607 28.75 20.0005 28.75C19.5402 28.75 19.1671 28.3769 19.1671 27.9167V26.6667C19.1671 26.2064 19.5402 25.8333 20.0005 25.8333Z" fill="black"/>
<path d="M25.412 22.9167C25.6421 22.5181 26.1518 22.3815 26.5504 22.6116L27.6329 23.2366C28.0315 23.4668 28.168 23.9764 27.9379 24.375C27.7078 24.7736 27.1981 24.9101 26.7996 24.68L25.717 24.055C25.3184 23.8249 25.1819 23.3152 25.412 22.9167Z" fill="black"/>
<path d="M25.717 15.945C25.3184 16.1751 25.1819 16.6848 25.412 17.0833C25.6421 17.4819 26.1518 17.6185 26.5504 17.3883L27.6329 16.7633C28.0315 16.5332 28.168 16.0236 27.9379 15.625C27.7078 15.2264 27.1981 15.0899 26.7996 15.32L25.717 15.945Z" fill="black"/>
<path d="M13.2003 15.1116C12.8018 14.8815 12.2921 15.0181 12.062 15.4167C11.8319 15.8152 11.9684 16.3249 12.367 16.555L13.4495 17.18C13.8481 17.4101 14.3578 17.2736 14.5879 16.875C14.818 16.4764 14.6814 15.9668 14.2829 15.7366L13.2003 15.1116Z" fill="black"/>
<path d="M12.062 24.5833C11.8319 24.1848 11.9684 23.6751 12.367 23.445L13.4495 22.82C13.8481 22.5899 14.3578 22.7264 14.5879 23.125C14.818 23.5236 14.6814 24.0332 14.2829 24.2633L13.2003 24.8883C12.8018 25.1185 12.2921 24.9819 12.062 24.5833Z" fill="black"/>
</svg>
