<svg width="49" height="48" viewBox="0 0 49 48" fill="none" xmlns="http://www.w3.org/2000/svg">
<path d="M4.82812 4.34766V44.725C4.82812 44.8965 4.96718 45.0356 5.13872 45.0356H45.5161" stroke="#667185" stroke-width="3.10595" stroke-linecap="round"/>
<path d="M23.1007 16.617L28.8053 16.617C28.8567 16.617 28.8984 16.5753 28.8984 16.5238L28.8984 14.1322L28.8984 11.7406C28.8984 11.6892 28.8567 11.6475 28.8053 11.6475L23.1007 11.6475L17.3029 11.6475L11.5983 11.6475C11.5468 11.6475 11.5051 11.6892 11.5051 11.7406L11.5051 14.1322L11.5051 16.5238C11.5051 16.5753 11.5468 16.617 11.5983 16.617L17.3029 16.617L23.1007 16.617Z" stroke="#667185" stroke-width="3.10595" stroke-linecap="round"/>
<path d="M19.1654 27.7986L22.9029 27.7986C22.9544 27.7986 22.9961 27.7569 22.9961 27.7054L22.9961 25.3139L22.9961 22.9223C22.9961 22.8708 22.9544 22.8291 22.9029 22.8291L19.1654 22.8291L15.3347 22.8291L11.5973 22.8291C11.5458 22.8291 11.5041 22.8708 11.5041 22.9223L11.5041 25.3139L11.5041 27.7054C11.5041 27.7569 11.5458 27.7986 11.5973 27.7986L15.3347 27.7986L19.1654 27.7986Z" stroke="#667185" stroke-width="3.10595" stroke-linecap="round"/>
<path d="M29.5201 38.9793L38.4342 38.9793C38.4856 38.9793 38.5273 38.9376 38.5273 38.8861L38.5273 36.4945L38.5273 34.1029C38.5273 34.0515 38.4856 34.0098 38.4342 34.0098L29.5201 34.0098L20.5128 34.0098L11.5988 34.0098C11.5473 34.0098 11.5056 34.0515 11.5056 34.1029L11.5056 36.4945L11.5056 38.8861C11.5056 38.9376 11.5473 38.9793 11.5988 38.9793L20.5128 38.9793L29.5201 38.9793Z" stroke="#667185" stroke-width="3.10595" stroke-linecap="round"/>
</svg>
