<svg width="49" height="48" viewBox="0 0 49 48" fill="none" xmlns="http://www.w3.org/2000/svg">
<path d="M22.8836 30.7498V25.8735C22.8836 25.822 22.8419 25.7803 22.7904 25.7803H20.3988H18.0072C17.9558 25.7803 17.9141 25.822 17.9141 25.8735V30.7498V35.7193V40.5957C17.9141 40.6471 17.9558 40.6888 18.0072 40.6888H20.3988H22.7904C22.8419 40.6888 22.8836 40.6471 22.8836 40.5957V35.7193V30.7498Z" stroke="#667185" stroke-width="3.10595" stroke-linecap="round"/>
<path d="M12.325 34.6831V31.7738C12.325 31.7224 12.2833 31.6807 12.2318 31.6807H9.84023H7.44865C7.39719 31.6807 7.35547 31.7224 7.35547 31.7738V34.6831V37.6855V40.5947C7.35547 40.6462 7.39719 40.6879 7.44865 40.6879H9.84023H12.2318C12.2833 40.6879 12.325 40.6462 12.325 40.5947V37.6855V34.6831Z" stroke="#667185" stroke-width="3.10595" stroke-linecap="round"/>
<path d="M33.4422 25.9865V18.7289C33.4422 18.6775 33.4005 18.6357 33.349 18.6357H30.9574H28.5658C28.5144 18.6357 28.4727 18.6775 28.4727 18.7289V25.9865V33.3372V40.5948C28.4727 40.6463 28.5144 40.688 28.5658 40.688H30.9574H33.349C33.4005 40.688 33.4422 40.6463 33.4422 40.5948V33.3372V25.9865Z" stroke="#667185" stroke-width="3.10595" stroke-linecap="round"/>
<path d="M44.0047 22.0532V12.8285C44.0047 12.7771 43.963 12.7354 43.9115 12.7354H41.5199H39.1283C39.0769 12.7354 39.0352 12.7771 39.0352 12.8285V22.0532V31.3711V40.5957C39.0352 40.6472 39.0769 40.6889 39.1283 40.6889H41.5199H43.9115C43.963 40.6889 44.0047 40.6472 44.0047 40.5957V31.3711V22.0532Z" stroke="#667185" stroke-width="3.10595" stroke-linecap="round"/>
</svg>
