<svg width="32" height="33" viewBox="0 0 32 33" fill="none" xmlns="http://www.w3.org/2000/svg">
<path d="M16.0007 23.0893L20.4113 18.68L19.4673 17.736L16.6673 20.536V14.2693H15.334V20.536L12.534 17.736L11.59 18.68L16.0007 23.0893ZM6.66732 10.5773V24.68C6.66732 24.9191 6.74421 25.1156 6.89798 25.2693C7.05176 25.4231 7.24821 25.5 7.48732 25.5H24.514C24.7531 25.5 24.9495 25.4231 25.1033 25.2693C25.2571 25.1156 25.334 24.9191 25.334 24.68V10.5773H6.66732ZM7.69398 26.8333C7.09665 26.8333 6.55398 26.5893 6.06598 26.1013C5.57798 25.6124 5.33398 25.0702 5.33398 24.4747V10.1493C5.33398 9.88889 5.37532 9.64444 5.45798 9.416C5.54154 9.18667 5.66598 8.97556 5.83132 8.78267L7.90865 6.28667C8.10154 6.02711 8.34287 5.83111 8.63265 5.69867C8.92243 5.56622 9.23354 5.5 9.56598 5.5H22.3846C22.7171 5.5 23.0326 5.56622 23.3313 5.69867C23.6291 5.832 23.8744 6.028 24.0673 6.28667L26.17 8.83333C26.3353 9.02622 26.4598 9.24178 26.5433 9.48C26.626 9.71733 26.6673 9.96622 26.6673 10.2267V24.4733C26.6673 25.0689 26.4233 25.6111 25.9353 26.1C25.4464 26.588 24.9042 26.832 24.3087 26.832L7.69398 26.8333ZM7.17398 9.244H24.8006L23.0273 7.116C22.9411 7.02978 22.8424 6.96133 22.7313 6.91067C22.6202 6.85911 22.5047 6.83333 22.3846 6.83333H9.58998C9.47087 6.83333 9.35532 6.85911 9.24332 6.91067C9.1331 6.96133 9.03532 7.02978 8.94998 7.116L7.17398 9.244Z" fill="#667185"/>
</svg>
