<svg width="14" height="14" viewBox="0 0 14 14" fill="none" xmlns="http://www.w3.org/2000/svg">
<path d="M4.08333 10.9382C3.84171 10.9382 3.64583 10.7423 3.64583 10.5007C3.64583 10.259 3.84171 10.0632 4.08333 10.0632L12.25 10.0632C12.4916 10.0632 12.6875 10.259 12.6875 10.5007C12.6875 10.7423 12.4916 10.9382 12.25 10.9382L4.08333 10.9382Z" fill="#099250"/>
<path d="M4.08333 7.43815C3.84171 7.43815 3.64583 7.24228 3.64583 7.00065C3.64583 6.75903 3.84171 6.56315 4.08333 6.56315L12.25 6.56315C12.4916 6.56315 12.6875 6.75903 12.6875 7.00065C12.6875 7.24228 12.4916 7.43815 12.25 7.43815L4.08333 7.43815Z" fill="#099250"/>
<path d="M4.08333 3.93815C3.84171 3.93815 3.64583 3.74228 3.64583 3.50065C3.64583 3.25903 3.84171 3.06315 4.08333 3.06315L12.25 3.06315C12.4916 3.06315 12.6875 3.25903 12.6875 3.50065C12.6875 3.74228 12.4916 3.93815 12.25 3.93815L4.08333 3.93815Z" fill="#099250"/>
<path d="M2.91667 7.00065C2.91667 6.67848 2.6555 6.41732 2.33333 6.41732C2.01117 6.41732 1.75 6.67848 1.75 7.00065C1.75 7.32282 2.01117 7.58398 2.33333 7.58398C2.6555 7.58398 2.91667 7.32282 2.91667 7.00065Z" fill="#099250"/>
<path d="M2.91667 10.5007C2.91667 10.1785 2.6555 9.91732 2.33333 9.91732C2.01117 9.91732 1.75 10.1785 1.75 10.5007C1.75 10.8228 2.01117 11.084 2.33333 11.084C2.6555 11.084 2.91667 10.8228 2.91667 10.5007Z" fill="#099250"/>
<path d="M2.91667 3.50065C2.91667 3.17849 2.6555 2.91732 2.33333 2.91732C2.01117 2.91732 1.75 3.17849 1.75 3.50065C1.75 3.82282 2.01117 4.08398 2.33333 4.08398C2.6555 4.08398 2.91667 3.82282 2.91667 3.50065Z" fill="#099250"/>
</svg>
