<svg width="14" height="14" viewBox="0 0 14 14" fill="none" xmlns="http://www.w3.org/2000/svg">
<g clip-path="url(#clip0_2727_128166)">
<path fill-rule="evenodd" clip-rule="evenodd" d="M13.2695 2.33268C13.2695 1.44673 12.5513 0.728516 11.6654 0.728516C10.7794 0.728516 10.0612 1.44673 10.0612 2.33268C10.0612 3.21864 10.7794 3.93685 11.6654 3.93685C12.5513 3.93685 13.2695 3.21864 13.2695 2.33268ZM11.6654 1.60352C12.0681 1.60352 12.3945 1.92998 12.3945 2.33268C12.3945 2.73539 12.0681 3.06185 11.6654 3.06185C11.2627 3.06185 10.9362 2.73539 10.9362 2.33268C10.9362 1.92998 11.2627 1.60352 11.6654 1.60352Z" fill="#2A2D32"/>
<path fill-rule="evenodd" clip-rule="evenodd" d="M13.2695 6.99935C13.2695 6.1134 12.5513 5.39519 11.6654 5.39519C10.7794 5.39519 10.0612 6.1134 10.0612 6.99935C10.0612 7.88531 10.7794 8.60352 11.6654 8.60352C12.5513 8.60352 13.2695 7.88531 13.2695 6.99935ZM11.6654 6.27019C12.0681 6.27019 12.3945 6.59664 12.3945 6.99935C12.3945 7.40206 12.0681 7.72852 11.6654 7.72852C11.2627 7.72852 10.9362 7.40206 10.9362 6.99935C10.9362 6.59664 11.2627 6.27019 11.6654 6.27019Z" fill="#2A2D32"/>
<path fill-rule="evenodd" clip-rule="evenodd" d="M13.2695 11.666C13.2695 10.7801 12.5513 10.0619 11.6654 10.0619C10.7794 10.0619 10.0612 10.7801 10.0612 11.666C10.0612 12.552 10.7794 13.2702 11.6654 13.2702C12.5513 13.2702 13.2695 12.552 13.2695 11.666ZM11.6654 10.9369C12.0681 10.9369 12.3945 11.2633 12.3945 11.666C12.3945 12.0687 12.0681 12.3952 11.6654 12.3952C11.2627 12.3952 10.9362 12.0687 10.9362 11.666C10.9362 11.2633 11.2627 10.9369 11.6654 10.9369Z" fill="#2A2D32"/>
<path fill-rule="evenodd" clip-rule="evenodd" d="M8.60287 2.33268C8.60287 1.44673 7.88465 0.728516 6.9987 0.728516C6.11274 0.728516 5.39453 1.44673 5.39453 2.33268C5.39453 3.21864 6.11274 3.93685 6.9987 3.93685C7.88466 3.93685 8.60287 3.21864 8.60287 2.33268ZM6.9987 1.60352C7.40141 1.60352 7.72787 1.92997 7.72787 2.33268C7.72787 2.73539 7.40141 3.06185 6.9987 3.06185C6.59599 3.06185 6.26953 2.73539 6.26953 2.33268C6.26953 1.92997 6.59599 1.60352 6.9987 1.60352Z" fill="#2A2D32"/>
<path fill-rule="evenodd" clip-rule="evenodd" d="M8.60287 6.99935C8.60287 6.1134 7.88466 5.39519 6.9987 5.39519C6.11274 5.39519 5.39453 6.1134 5.39453 6.99935C5.39453 7.88531 6.11274 8.60352 6.9987 8.60352C7.88466 8.60352 8.60287 7.88531 8.60287 6.99935ZM6.9987 6.27019C7.40141 6.27019 7.72786 6.59664 7.72786 6.99935C7.72786 7.40206 7.40141 7.72852 6.9987 7.72852C6.59599 7.72852 6.26953 7.40206 6.26953 6.99935C6.26953 6.59664 6.59599 6.27019 6.9987 6.27019Z" fill="#2A2D32"/>
<path fill-rule="evenodd" clip-rule="evenodd" d="M8.60286 11.666C8.60286 10.7801 7.88466 10.0619 6.9987 10.0619C6.11274 10.0619 5.39453 10.7801 5.39453 11.666C5.39453 12.552 6.11274 13.2702 6.9987 13.2702C7.88466 13.2702 8.60286 12.552 8.60286 11.666ZM6.9987 10.9369C7.40141 10.9369 7.72786 11.2633 7.72786 11.666C7.72786 12.0687 7.40141 12.3952 6.9987 12.3952C6.59599 12.3952 6.26953 12.0687 6.26953 11.666C6.26953 11.2633 6.59599 10.9369 6.9987 10.9369Z" fill="#2A2D32"/>
<path fill-rule="evenodd" clip-rule="evenodd" d="M3.9362 2.33268C3.9362 1.44673 3.21799 0.728516 2.33203 0.728516C1.44607 0.728516 0.727865 1.44673 0.727865 2.33268C0.727865 3.21864 1.44607 3.93685 2.33203 3.93685C3.21799 3.93685 3.9362 3.21864 3.9362 2.33268ZM2.33203 1.60352C2.73474 1.60352 3.0612 1.92997 3.0612 2.33268C3.0612 2.73539 2.73474 3.06185 2.33203 3.06185C1.92932 3.06185 1.60287 2.73539 1.60287 2.33268C1.60287 1.92997 1.92932 1.60352 2.33203 1.60352Z" fill="#2A2D32"/>
<path fill-rule="evenodd" clip-rule="evenodd" d="M3.9362 6.99935C3.9362 6.1134 3.21799 5.39519 2.33203 5.39519C1.44607 5.39519 0.727865 6.1134 0.727865 6.99935C0.727865 7.88531 1.44607 8.60352 2.33203 8.60352C3.21799 8.60352 3.9362 7.88531 3.9362 6.99935ZM2.33203 6.27019C2.73474 6.27019 3.0612 6.59665 3.0612 6.99935C3.0612 7.40206 2.73474 7.72852 2.33203 7.72852C1.92932 7.72852 1.60287 7.40206 1.60287 6.99935C1.60287 6.59664 1.92932 6.27019 2.33203 6.27019Z" fill="#2A2D32"/>
<path fill-rule="evenodd" clip-rule="evenodd" d="M3.9362 11.666C3.9362 10.7801 3.21799 10.0619 2.33203 10.0619C1.44607 10.0619 0.727865 10.7801 0.727865 11.666C0.727865 12.552 1.44607 13.2702 2.33203 13.2702C3.21799 13.2702 3.9362 12.552 3.9362 11.666ZM2.33203 10.9369C2.73474 10.9369 3.0612 11.2633 3.0612 11.666C3.0612 12.0687 2.73474 12.3952 2.33203 12.3952C1.92932 12.3952 1.60287 12.0687 1.60287 11.666C1.60287 11.2633 1.92932 10.9369 2.33203 10.9369Z" fill="#2A2D32"/>
</g>
<defs>
<clipPath id="clip0_2727_128166">
<rect width="14" height="14" fill="white" transform="translate(14) rotate(90)"/>
</clipPath>
</defs>
</svg>
