<svg width="17" height="19" viewBox="0 0 17 19" fill="none" xmlns="http://www.w3.org/2000/svg">
<g id="Pin">
<path id="Vector" d="M7.06735 2.86245C8.39053 0.570633 11.3211 -0.2146 13.6129 1.10858C15.9047 2.43176 16.6899 5.3623 15.3668 7.65412L15.2766 7.8102C16.3452 9.58526 16.5265 11.8238 15.627 13.8089C15.496 14.0982 15.3127 14.4156 14.9955 14.965L14.9629 15.0215C14.925 15.0872 14.8857 15.1554 14.8432 15.2147C14.438 15.7802 13.6897 15.9807 13.0559 15.6936C12.9895 15.6635 12.9214 15.6241 12.8558 15.5861L7.69641 12.6073L4.67558 17.8396C4.50299 18.1385 4.12074 18.2409 3.82181 18.0683C3.52288 17.8958 3.42045 17.5135 3.59304 17.2146L6.61388 11.9823L1.45448 9.00357C1.38881 8.96572 1.32064 8.92643 1.26136 8.88395C0.695836 8.4787 0.49533 7.7304 0.782464 7.09669C0.812562 7.03026 0.851956 6.96214 0.8899 6.89654L0.922512 6.84007C1.23969 6.29067 1.423 5.97315 1.60797 5.71503C2.87717 3.94385 4.90585 2.98161 6.97693 3.01907L7.06735 2.86245Z" fill="#2E90FA"/>
</g>
</svg>
