<svg width="49" height="48" viewBox="0 0 49 48" fill="none" xmlns="http://www.w3.org/2000/svg">
<mask id="path-1-inside-1_3040_72621" fill="white">
<path fill-rule="evenodd" clip-rule="evenodd" d="M8.5 40.001V7.00098H6.5V41.001C6.5 41.2662 6.60536 41.5205 6.79289 41.7081C6.98043 41.8956 7.23478 42.001 7.5 42.001H41.5V40.001H8.5Z"/>
</mask>
<path fill-rule="evenodd" clip-rule="evenodd" d="M8.5 40.001V7.00098H6.5V41.001C6.5 41.2662 6.60536 41.5205 6.79289 41.7081C6.98043 41.8956 7.23478 42.001 7.5 42.001H41.5V40.001H8.5Z" fill="#BFBFBF"/>
<path d="M8.5 40.001H4.53129V43.9697H8.5V40.001ZM8.5 7.00098H12.4687V3.03226H8.5V7.00098ZM6.5 7.00098V3.03226H2.53129V7.00098H6.5ZM41.5 42.001V45.9697H45.4687V42.001H41.5ZM41.5 40.001H45.4687V36.0323H41.5V40.001ZM12.4687 40.001V7.00098H4.53129V40.001H12.4687ZM8.5 3.03226H6.5V10.9697H8.5V3.03226ZM2.53129 7.00098V41.001H10.4687V7.00098H2.53129ZM2.53129 41.001C2.53129 42.3188 3.05477 43.5826 3.98659 44.5144L9.5992 38.9018C10.1559 39.4585 10.4687 40.2136 10.4687 41.001H2.53129ZM3.98659 44.5144C4.91841 45.4462 6.18222 45.9697 7.5 45.9697V38.0323C8.28735 38.0323 9.04245 38.345 9.5992 38.9018L3.98659 44.5144ZM7.5 45.9697H41.5V38.0323H7.5V45.9697ZM45.4687 42.001V40.001H37.5313V42.001H45.4687ZM41.5 36.0323H8.5V43.9697H41.5V36.0323Z" fill="#667185" mask="url(#path-1-inside-1_3040_72621)"/>
<mask id="path-3-inside-2_3040_72621" fill="white">
<path fill-rule="evenodd" clip-rule="evenodd" d="M11.5 25C11.5 24.7348 11.6054 24.4804 11.7929 24.2929C11.9804 24.1054 12.2348 24 12.5 24H18.5C18.7652 24 19.0196 24.1054 19.2071 24.2929C19.3946 24.4804 19.5 24.7348 19.5 25V41C19.5 41.2652 19.3946 41.5196 19.2071 41.7071C19.0196 41.8946 18.7652 42 18.5 42H12.5C12.2348 42 11.9804 41.8946 11.7929 41.7071C11.6054 41.5196 11.5 41.2652 11.5 41V25ZM13.5 26V40H17.5V26H13.5Z"/>
</mask>
<path fill-rule="evenodd" clip-rule="evenodd" d="M11.5 25C11.5 24.7348 11.6054 24.4804 11.7929 24.2929C11.9804 24.1054 12.2348 24 12.5 24H18.5C18.7652 24 19.0196 24.1054 19.2071 24.2929C19.3946 24.4804 19.5 24.7348 19.5 25V41C19.5 41.2652 19.3946 41.5196 19.2071 41.7071C19.0196 41.8946 18.7652 42 18.5 42H12.5C12.2348 42 11.9804 41.8946 11.7929 41.7071C11.6054 41.5196 11.5 41.2652 11.5 41V25ZM13.5 26V40H17.5V26H13.5Z" fill="#BFBFBF"/>
<path d="M13.5 26V22.0313H9.53129V26H13.5ZM13.5 40H9.53129V43.9687H13.5V40ZM17.5 40V43.9687H21.4687V40H17.5ZM17.5 26H21.4687V22.0313H17.5V26ZM15.4687 25C15.4687 25.7874 15.1559 26.5425 14.5992 27.0992L8.98659 21.4866C8.05477 22.4184 7.53129 23.6822 7.53129 25H15.4687ZM14.5992 27.0992C14.0425 27.6559 13.2873 27.9687 12.5 27.9687V20.0313C11.1822 20.0313 9.91841 20.5548 8.98659 21.4866L14.5992 27.0992ZM12.5 27.9687H18.5V20.0313H12.5V27.9687ZM18.5 27.9687C17.7127 27.9687 16.9576 27.6559 16.4008 27.0992L22.0134 21.4866C21.0816 20.5548 19.8178 20.0313 18.5 20.0313V27.9687ZM16.4008 27.0992C15.8441 26.5424 15.5313 25.7873 15.5313 25H23.4687C23.4687 23.6822 22.9452 22.4184 22.0134 21.4866L16.4008 27.0992ZM15.5313 25V41H23.4687V25H15.5313ZM15.5313 41C15.5313 40.2127 15.8441 39.4576 16.4008 38.9008L22.0134 44.5134C22.9452 43.5816 23.4687 42.3178 23.4687 41H15.5313ZM16.4008 38.9008C16.9576 38.3441 17.7127 38.0313 18.5 38.0313V45.9687C19.8178 45.9687 21.0816 45.4452 22.0134 44.5134L16.4008 38.9008ZM18.5 38.0313H12.5V45.9687H18.5V38.0313ZM12.5 38.0313C13.2873 38.0313 14.0425 38.3441 14.5992 38.9008L8.98659 44.5134C9.91841 45.4452 11.1822 45.9687 12.5 45.9687V38.0313ZM14.5992 38.9008C15.1559 39.4575 15.4687 40.2127 15.4687 41H7.53129C7.53129 42.3178 8.05477 43.5816 8.98659 44.5134L14.5992 38.9008ZM15.4687 41V25H7.53129V41H15.4687ZM9.53129 26V40H17.4687V26H9.53129ZM13.5 43.9687H17.5V36.0313H13.5V43.9687ZM21.4687 40V26H13.5313V40H21.4687ZM17.5 22.0313H13.5V29.9687H17.5V22.0313Z" fill="#667185" mask="url(#path-3-inside-2_3040_72621)"/>
<mask id="path-5-inside-3_3040_72621" fill="white">
<path fill-rule="evenodd" clip-rule="evenodd" d="M11.5 33C11.5 32.7348 11.6054 32.4804 11.7929 32.2929C11.9804 32.1054 12.2348 32 12.5 32H18.5C18.7652 32 19.0196 32.1054 19.2071 32.2929C19.3946 32.4804 19.5 32.7348 19.5 33V41C19.5 41.2652 19.3946 41.5196 19.2071 41.7071C19.0196 41.8946 18.7652 42 18.5 42H12.5C12.2348 42 11.9804 41.8946 11.7929 41.7071C11.6054 41.5196 11.5 41.2652 11.5 41V33ZM13.5 34V40H17.5V34H13.5Z"/>
</mask>
<path fill-rule="evenodd" clip-rule="evenodd" d="M11.5 33C11.5 32.7348 11.6054 32.4804 11.7929 32.2929C11.9804 32.1054 12.2348 32 12.5 32H18.5C18.7652 32 19.0196 32.1054 19.2071 32.2929C19.3946 32.4804 19.5 32.7348 19.5 33V41C19.5 41.2652 19.3946 41.5196 19.2071 41.7071C19.0196 41.8946 18.7652 42 18.5 42H12.5C12.2348 42 11.9804 41.8946 11.7929 41.7071C11.6054 41.5196 11.5 41.2652 11.5 41V33ZM13.5 34V40H17.5V34H13.5Z" fill="#BFBFBF"/>
<path d="M12.5 32V28.0313V32ZM13.5 34V30.0313H9.53129V34H13.5ZM13.5 40H9.53129V43.9687H13.5V40ZM17.5 40V43.9687H21.4687V40H17.5ZM17.5 34H21.4687V30.0313H17.5V34ZM15.4687 33C15.4687 33.7874 15.1559 34.5425 14.5992 35.0992L8.98659 29.4866C8.05477 30.4184 7.53129 31.6822 7.53129 33H15.4687ZM14.5992 35.0992C14.0425 35.6559 13.2873 35.9687 12.5 35.9687V28.0313C11.1822 28.0313 9.91841 28.5548 8.98659 29.4866L14.5992 35.0992ZM12.5 35.9687H18.5V28.0313H12.5V35.9687ZM18.5 35.9687C17.7127 35.9687 16.9576 35.6559 16.4008 35.0992L22.0134 29.4866C21.0816 28.5548 19.8178 28.0313 18.5 28.0313V35.9687ZM16.4008 35.0992C15.8441 34.5424 15.5313 33.7873 15.5313 33H23.4687C23.4687 31.6822 22.9452 30.4184 22.0134 29.4866L16.4008 35.0992ZM15.5313 33V41H23.4687V33H15.5313ZM15.5313 41C15.5313 40.2127 15.8441 39.4576 16.4008 38.9008L22.0134 44.5134C22.9452 43.5816 23.4687 42.3178 23.4687 41H15.5313ZM16.4008 38.9008C16.9576 38.3441 17.7127 38.0313 18.5 38.0313V45.9687C19.8178 45.9687 21.0816 45.4452 22.0134 44.5134L16.4008 38.9008ZM18.5 38.0313H12.5V45.9687H18.5V38.0313ZM12.5 38.0313C13.2873 38.0313 14.0425 38.3441 14.5992 38.9008L8.98659 44.5134C9.91841 45.4452 11.1822 45.9687 12.5 45.9687V38.0313ZM14.5992 38.9008C15.1559 39.4575 15.4687 40.2126 15.4687 41H7.53129C7.53129 42.3178 8.05477 43.5816 8.98659 44.5134L14.5992 38.9008ZM15.4687 41V33H7.53129V41H15.4687ZM9.53129 34V40H17.4687V34H9.53129ZM13.5 43.9687H17.5V36.0313H13.5V43.9687ZM21.4687 40V34H13.5313V40H21.4687ZM17.5 30.0313H13.5V37.9687H17.5V30.0313Z" fill="#667185" mask="url(#path-5-inside-3_3040_72621)"/>
<mask id="path-7-inside-4_3040_72621" fill="white">
<path fill-rule="evenodd" clip-rule="evenodd" d="M21.5 21.001C21.5 20.7358 21.6054 20.4814 21.7929 20.2939C21.9804 20.1063 22.2348 20.001 22.5 20.001H28.5C28.7652 20.001 29.0196 20.1063 29.2071 20.2939C29.3946 20.4814 29.5 20.7358 29.5 21.001V41.001C29.5 41.2662 29.3946 41.5205 29.2071 41.7081C29.0196 41.8956 28.7652 42.001 28.5 42.001H22.5C22.2348 42.001 21.9804 41.8956 21.7929 41.7081C21.6054 41.5205 21.5 41.2662 21.5 41.001V21.001ZM23.5 22.001V40.001H27.5V22.001H23.5Z"/>
</mask>
<path fill-rule="evenodd" clip-rule="evenodd" d="M21.5 21.001C21.5 20.7358 21.6054 20.4814 21.7929 20.2939C21.9804 20.1063 22.2348 20.001 22.5 20.001H28.5C28.7652 20.001 29.0196 20.1063 29.2071 20.2939C29.3946 20.4814 29.5 20.7358 29.5 21.001V41.001C29.5 41.2662 29.3946 41.5205 29.2071 41.7081C29.0196 41.8956 28.7652 42.001 28.5 42.001H22.5C22.2348 42.001 21.9804 41.8956 21.7929 41.7081C21.6054 41.5205 21.5 41.2662 21.5 41.001V21.001ZM23.5 22.001V40.001H27.5V22.001H23.5Z" fill="#BFBFBF"/>
<path d="M23.5 22.001V18.0323H19.5313V22.001H23.5ZM23.5 40.001H19.5313V43.9697H23.5V40.001ZM27.5 40.001V43.9697H31.4687V40.001H27.5ZM27.5 22.001H31.4687V18.0323H27.5V22.001ZM25.4687 21.001C25.4687 21.7883 25.1559 22.5434 24.5992 23.1002L18.9866 17.4876C18.0548 18.4194 17.5313 19.6832 17.5313 21.001H25.4687ZM24.5992 23.1002C24.0424 23.6569 23.2873 23.9697 22.5 23.9697V16.0323C21.1822 16.0323 19.9184 16.5557 18.9866 17.4876L24.5992 23.1002ZM22.5 23.9697H28.5V16.0323H22.5V23.9697ZM28.5 23.9697C27.7127 23.9697 26.9576 23.6569 26.4008 23.1002L32.0134 17.4876C31.0816 16.5557 29.8178 16.0323 28.5 16.0323V23.9697ZM26.4008 23.1002C25.8441 22.5434 25.5313 21.7883 25.5313 21.001H33.4687C33.4687 19.6832 32.9452 18.4194 32.0134 17.4876L26.4008 23.1002ZM25.5313 21.001V41.001H33.4687V21.001H25.5313ZM25.5313 41.001C25.5313 40.2136 25.8441 39.4585 26.4008 38.9018L32.0134 44.5144C32.9452 43.5826 33.4687 42.3187 33.4687 41.001H25.5313ZM26.4008 38.9018C26.9576 38.345 27.7127 38.0323 28.5 38.0323V45.9697C29.8178 45.9697 31.0816 45.4462 32.0134 44.5144L26.4008 38.9018ZM28.5 38.0323H22.5V45.9697H28.5V38.0323ZM22.5 38.0323C23.2873 38.0323 24.0424 38.345 24.5992 38.9018L18.9866 44.5144C19.9184 45.4462 21.1822 45.9697 22.5 45.9697V38.0323ZM24.5992 38.9018C25.1559 39.4585 25.4687 40.2136 25.4687 41.001H17.5313C17.5313 42.3187 18.0548 43.5826 18.9866 44.5144L24.5992 38.9018ZM25.4687 41.001V21.001H17.5313V41.001H25.4687ZM19.5313 22.001V40.001H27.4687V22.001H19.5313ZM23.5 43.9697H27.5V36.0323H23.5V43.9697ZM31.4687 40.001V22.001H23.5313V40.001H31.4687ZM27.5 18.0323H23.5V25.9697H27.5V18.0323Z" fill="#667185" mask="url(#path-7-inside-4_3040_72621)"/>
<mask id="path-9-inside-5_3040_72621" fill="white">
<path fill-rule="evenodd" clip-rule="evenodd" d="M21.5 29C21.5 28.7348 21.6054 28.4804 21.7929 28.2929C21.9804 28.1054 22.2348 28 22.5 28H28.5C28.7652 28 29.0196 28.1054 29.2071 28.2929C29.3946 28.4804 29.5 28.7348 29.5 29V41C29.5 41.2652 29.3946 41.5196 29.2071 41.7071C29.0196 41.8946 28.7652 42 28.5 42H22.5C22.2348 42 21.9804 41.8946 21.7929 41.7071C21.6054 41.5196 21.5 41.2652 21.5 41V29ZM23.5 30V40H27.5V30H23.5Z"/>
</mask>
<path fill-rule="evenodd" clip-rule="evenodd" d="M21.5 29C21.5 28.7348 21.6054 28.4804 21.7929 28.2929C21.9804 28.1054 22.2348 28 22.5 28H28.5C28.7652 28 29.0196 28.1054 29.2071 28.2929C29.3946 28.4804 29.5 28.7348 29.5 29V41C29.5 41.2652 29.3946 41.5196 29.2071 41.7071C29.0196 41.8946 28.7652 42 28.5 42H22.5C22.2348 42 21.9804 41.8946 21.7929 41.7071C21.6054 41.5196 21.5 41.2652 21.5 41V29ZM23.5 30V40H27.5V30H23.5Z" fill="#BFBFBF"/>
<path d="M23.5 30V26.0313H19.5313V30H23.5ZM23.5 40H19.5313V43.9687H23.5V40ZM27.5 40V43.9687H31.4687V40H27.5ZM27.5 30H31.4687V26.0313H27.5V30ZM25.4687 29C25.4687 29.7873 25.1559 30.5424 24.5992 31.0992L18.9866 25.4866C18.0548 26.4184 17.5313 27.6822 17.5313 29H25.4687ZM24.5992 31.0992C24.0424 31.6559 23.2873 31.9687 22.5 31.9687V24.0313C21.1822 24.0313 19.9184 24.5548 18.9866 25.4866L24.5992 31.0992ZM22.5 31.9687H28.5V24.0313H22.5V31.9687ZM28.5 31.9687C27.7127 31.9687 26.9576 31.6559 26.4008 31.0992L32.0134 25.4866C31.0816 24.5548 29.8178 24.0313 28.5 24.0313V31.9687ZM26.4008 31.0992C25.8441 30.5424 25.5313 29.7873 25.5313 29H33.4687C33.4687 27.6822 32.9452 26.4184 32.0134 25.4866L26.4008 31.0992ZM25.5313 29V41H33.4687V29H25.5313ZM25.5313 41C25.5313 40.2127 25.8441 39.4576 26.4008 38.9008L32.0134 44.5134C32.9452 43.5816 33.4687 42.3178 33.4687 41H25.5313ZM26.4008 38.9008C26.9576 38.3441 27.7127 38.0313 28.5 38.0313V45.9687C29.8178 45.9687 31.0816 45.4452 32.0134 44.5134L26.4008 38.9008ZM28.5 38.0313H22.5V45.9687H28.5V38.0313ZM22.5 38.0313C23.2873 38.0313 24.0424 38.3441 24.5992 38.9008L18.9866 44.5134C19.9184 45.4452 21.1822 45.9687 22.5 45.9687V38.0313ZM24.5992 38.9008C25.1559 39.4576 25.4687 40.2127 25.4687 41H17.5313C17.5313 42.3178 18.0548 43.5816 18.9866 44.5134L24.5992 38.9008ZM25.4687 41V29H17.5313V41H25.4687ZM19.5313 30V40H27.4687V30H19.5313ZM23.5 43.9687H27.5V36.0313H23.5V43.9687ZM31.4687 40V30H23.5313V40H31.4687ZM27.5 26.0313H23.5V33.9687H27.5V26.0313Z" fill="#667185" mask="url(#path-9-inside-5_3040_72621)"/>
<mask id="path-11-inside-6_3040_72621" fill="white">
<path fill-rule="evenodd" clip-rule="evenodd" d="M31.5 12.999C31.5 12.7338 31.6054 12.4795 31.7929 12.2919C31.9804 12.1044 32.2348 11.999 32.5 11.999H38.5C38.7652 11.999 39.0196 12.1044 39.2071 12.2919C39.3946 12.4795 39.5 12.7338 39.5 12.999V40.999C39.5 41.2642 39.3946 41.5186 39.2071 41.7061C39.0196 41.8937 38.7652 41.999 38.5 41.999H32.5C32.2348 41.999 31.9804 41.8937 31.7929 41.7061C31.6054 41.5186 31.5 41.2642 31.5 40.999V12.999ZM33.5 13.999V39.999H37.5V13.999H33.5Z"/>
</mask>
<path fill-rule="evenodd" clip-rule="evenodd" d="M31.5 12.999C31.5 12.7338 31.6054 12.4795 31.7929 12.2919C31.9804 12.1044 32.2348 11.999 32.5 11.999H38.5C38.7652 11.999 39.0196 12.1044 39.2071 12.2919C39.3946 12.4795 39.5 12.7338 39.5 12.999V40.999C39.5 41.2642 39.3946 41.5186 39.2071 41.7061C39.0196 41.8937 38.7652 41.999 38.5 41.999H32.5C32.2348 41.999 31.9804 41.8937 31.7929 41.7061C31.6054 41.5186 31.5 41.2642 31.5 40.999V12.999ZM33.5 13.999V39.999H37.5V13.999H33.5Z" fill="#BFBFBF"/>
<path d="M33.5 13.999V10.0303H29.5313V13.999H33.5ZM33.5 39.999H29.5313V43.9677H33.5V39.999ZM37.5 39.999V43.9677H41.4687V39.999H37.5ZM37.5 13.999H41.4687V10.0303H37.5V13.999ZM35.4687 12.999C35.4687 13.7864 35.1559 14.5415 34.5992 15.0982L28.9866 9.48561C28.0548 10.4174 27.5313 11.6812 27.5313 12.999H35.4687ZM34.5992 15.0982C34.0425 15.655 33.2874 15.9677 32.5 15.9677V8.03031C31.1822 8.03031 29.9184 8.5538 28.9866 9.48561L34.5992 15.0982ZM32.5 15.9677H38.5V8.03031H32.5V15.9677ZM38.5 15.9677C37.7127 15.9677 36.9575 15.655 36.4008 15.0982L42.0134 9.48561C41.0816 8.5538 39.8178 8.03031 38.5 8.03031V15.9677ZM36.4008 15.0982C35.8441 14.5415 35.5313 13.7864 35.5313 12.999H43.4687C43.4687 11.6812 42.9452 10.4174 42.0134 9.48561L36.4008 15.0982ZM35.5313 12.999V40.999H43.4687V12.999H35.5313ZM35.5313 40.999C35.5313 40.2117 35.8441 39.4566 36.4008 38.8998L42.0134 44.5124C42.9452 43.5806 43.4687 42.3168 43.4687 40.999H35.5313ZM36.4008 38.8998C36.9576 38.3431 37.7127 38.0303 38.5 38.0303V45.9677C39.8178 45.9677 41.0816 45.4443 42.0134 44.5124L36.4008 38.8998ZM38.5 38.0303H32.5V45.9677H38.5V38.0303ZM32.5 38.0303C33.2873 38.0303 34.0424 38.3431 34.5992 38.8998L28.9866 44.5124C29.9184 45.4443 31.1822 45.9677 32.5 45.9677V38.0303ZM34.5992 38.8998C35.1559 39.4566 35.4687 40.2117 35.4687 40.999H27.5313C27.5313 42.3168 28.0548 43.5806 28.9866 44.5124L34.5992 38.8998ZM35.4687 40.999V12.999H27.5313V40.999H35.4687ZM29.5313 13.999V39.999H37.4687V13.999H29.5313ZM33.5 43.9677H37.5V36.0303H33.5V43.9677ZM41.4687 39.999V13.999H33.5313V39.999H41.4687ZM37.5 10.0303H33.5V17.9677H37.5V10.0303Z" fill="#667185" mask="url(#path-11-inside-6_3040_72621)"/>
<mask id="path-13-inside-7_3040_72621" fill="white">
<path fill-rule="evenodd" clip-rule="evenodd" d="M31.5 25C31.5 24.7348 31.6054 24.4804 31.7929 24.2929C31.9804 24.1054 32.2348 24 32.5 24H38.5C38.7652 24 39.0196 24.1054 39.2071 24.2929C39.3946 24.4804 39.5 24.7348 39.5 25V41C39.5 41.2652 39.3946 41.5196 39.2071 41.7071C39.0196 41.8946 38.7652 42 38.5 42H32.5C32.2348 42 31.9804 41.8946 31.7929 41.7071C31.6054 41.5196 31.5 41.2652 31.5 41V25ZM33.5 26V40H37.5V26H33.5Z"/>
</mask>
<path fill-rule="evenodd" clip-rule="evenodd" d="M31.5 25C31.5 24.7348 31.6054 24.4804 31.7929 24.2929C31.9804 24.1054 32.2348 24 32.5 24H38.5C38.7652 24 39.0196 24.1054 39.2071 24.2929C39.3946 24.4804 39.5 24.7348 39.5 25V41C39.5 41.2652 39.3946 41.5196 39.2071 41.7071C39.0196 41.8946 38.7652 42 38.5 42H32.5C32.2348 42 31.9804 41.8946 31.7929 41.7071C31.6054 41.5196 31.5 41.2652 31.5 41V25ZM33.5 26V40H37.5V26H33.5Z" fill="#BFBFBF"/>
<path d="M33.5 26V22.0313H29.5313V26H33.5ZM33.5 40H29.5313V43.9687H33.5V40ZM37.5 40V43.9687H41.4687V40H37.5ZM37.5 26H41.4687V22.0313H37.5V26ZM35.4687 25C35.4687 25.7873 35.1559 26.5424 34.5992 27.0992L28.9866 21.4866C28.0548 22.4184 27.5313 23.6822 27.5313 25H35.4687ZM34.5992 27.0992C34.0424 27.6559 33.2873 27.9687 32.5 27.9687V20.0313C31.1822 20.0313 29.9184 20.5548 28.9866 21.4866L34.5992 27.0992ZM32.5 27.9687H38.5V20.0313H32.5V27.9687ZM38.5 27.9687C37.7127 27.9687 36.9576 27.6559 36.4008 27.0992L42.0134 21.4866C41.0816 20.5548 39.8178 20.0313 38.5 20.0313V27.9687ZM36.4008 27.0992C35.8441 26.5424 35.5313 25.7873 35.5313 25H43.4687C43.4687 23.6822 42.9452 22.4184 42.0134 21.4866L36.4008 27.0992ZM35.5313 25V41H43.4687V25H35.5313ZM35.5313 41C35.5313 40.2127 35.8441 39.4576 36.4008 38.9008L42.0134 44.5134C42.9452 43.5816 43.4687 42.3178 43.4687 41H35.5313ZM36.4008 38.9008C36.9576 38.3441 37.7127 38.0313 38.5 38.0313V45.9687C39.8178 45.9687 41.0816 45.4452 42.0134 44.5134L36.4008 38.9008ZM38.5 38.0313H32.5V45.9687H38.5V38.0313ZM32.5 38.0313C33.2873 38.0313 34.0424 38.3441 34.5992 38.9008L28.9866 44.5134C29.9184 45.4452 31.1822 45.9687 32.5 45.9687V38.0313ZM34.5992 38.9008C35.1559 39.4576 35.4687 40.2127 35.4687 41H27.5313C27.5313 42.3178 28.0548 43.5816 28.9866 44.5134L34.5992 38.9008ZM35.4687 41V25H27.5313V41H35.4687ZM29.5313 26V40H37.4687V26H29.5313ZM33.5 43.9687H37.5V36.0313H33.5V43.9687ZM41.4687 40V26H33.5313V40H41.4687ZM37.5 22.0313H33.5V29.9687H37.5V22.0313Z" fill="#667185" mask="url(#path-13-inside-7_3040_72621)"/>
</svg>
