<svg width="48" height="48" viewBox="0 0 48 48" fill="none" xmlns="http://www.w3.org/2000/svg">
<rect width="48" height="48" rx="24" fill="#FEF6E7"/>
<path d="M24.0001 22.5C24.1658 22.5 24.3001 22.6343 24.3001 22.8V30C24.3001 30.1657 24.1658 30.3 24.0001 30.3C23.8344 30.3 23.7001 30.1657 23.7001 30V22.8C23.7001 22.6343 23.8344 22.5 24.0001 22.5ZM11.7001 24C11.7001 17.2069 17.207 11.7 24.0001 11.7C30.7932 11.7 36.3001 17.2069 36.3001 24C36.3001 30.7931 30.7932 36.3 24.0001 36.3C17.207 36.3 11.7001 30.7931 11.7001 24ZM24.0001 12.3C17.5384 12.3 12.3001 17.5383 12.3001 24C12.3001 30.4617 17.5384 35.7 24.0001 35.7C30.4618 35.7 35.7001 30.4617 35.7001 24C35.7001 17.5383 30.4618 12.3 24.0001 12.3ZM24.6001 19.2C24.6001 19.5314 24.3315 19.8 24.0001 19.8C23.6687 19.8 23.4001 19.5314 23.4001 19.2C23.4001 18.8686 23.6687 18.6 24.0001 18.6C24.3315 18.6 24.6001 18.8686 24.6001 19.2Z" fill="#2D264B" stroke="#DD900D" stroke-width="1.2"/>
</svg>
