<svg width="16" height="16" viewBox="0 0 16 16" fill="none" xmlns="http://www.w3.org/2000/svg">
<g id="icon / user-group">
<g id="icon">
<path fill-rule="evenodd" clip-rule="evenodd" d="M8.00047 3.33398C6.52771 3.33398 5.33381 4.52789 5.33381 6.00065C5.33381 7.47341 6.52771 8.66732 8.00047 8.66732C9.47323 8.66732 10.6671 7.47341 10.6671 6.00065C10.6671 4.52789 9.47323 3.33398 8.00047 3.33398ZM6.66714 6.00065C6.66714 5.26427 7.26409 4.66732 8.00047 4.66732C8.73685 4.66732 9.33381 5.26427 9.33381 6.00065C9.33381 6.73703 8.73685 7.33398 8.00047 7.33398C7.26409 7.33398 6.66714 6.73703 6.66714 6.00065Z" fill="#344054"/>
<path fill-rule="evenodd" clip-rule="evenodd" d="M8.00047 14.6673C7.24255 14.6673 6.14972 14.4882 5.32037 14.1071C4.91354 13.9201 4.47702 13.6428 4.21954 13.2279C4.08361 13.0089 3.99773 12.7507 4.00054 12.4634C4.00332 12.1788 4.09258 11.9089 4.23873 11.6615C4.90705 10.5305 6.2935 9.33398 8.00047 9.33398C9.70744 9.33398 11.0939 10.5305 11.7622 11.6615C11.9084 11.9089 11.9976 12.1788 12.0004 12.4634C12.0032 12.7507 11.9173 13.0089 11.7814 13.2279C11.5239 13.6428 11.0874 13.9201 10.6806 14.1071C9.85122 14.4882 8.75839 14.6673 8.00047 14.6673ZM5.38664 12.3398C5.33559 12.4262 5.33388 12.4691 5.33381 12.4764C5.33375 12.4812 5.33359 12.4945 5.35242 12.5248C5.40535 12.6101 5.55907 12.7494 5.87713 12.8955C6.49754 13.1806 7.39303 13.334 8.00047 13.334C8.60791 13.334 9.5034 13.1806 10.1238 12.8955C10.4419 12.7494 10.5956 12.6101 10.6485 12.5248C10.6674 12.4945 10.6672 12.4816 10.6671 12.4767C10.6671 12.4694 10.6654 12.4262 10.6143 12.3398C10.0962 11.4629 9.08281 10.6673 8.00047 10.6673C6.91813 10.6673 5.90478 11.4629 5.38664 12.3398Z" fill="#344054"/>
<path fill-rule="evenodd" clip-rule="evenodd" d="M1.66714 8.00065C1.66714 6.89608 2.56257 6.00065 3.66714 6.00065C4.77171 6.00065 5.66714 6.89608 5.66714 8.00065C5.66714 9.10522 4.77171 10.0007 3.66714 10.0007C2.56257 10.0007 1.66714 9.10522 1.66714 8.00065ZM3.66714 7.33398C3.29895 7.33398 3.00047 7.63246 3.00047 8.00065C3.00047 8.36884 3.29895 8.66732 3.66714 8.66732C4.03533 8.66732 4.33381 8.36884 4.33381 8.00065C4.33381 7.63246 4.03533 7.33398 3.66714 7.33398Z" fill="#344054"/>
<path d="M1.93096 12.9637C1.76727 13.2935 1.36721 13.4282 1.03741 13.2645C0.707612 13.1008 0.572957 12.7007 0.736651 12.3709C0.981574 11.8775 1.35229 11.382 1.81864 11.0029C2.28517 10.6237 2.88299 10.334 3.56525 10.334C3.93344 10.334 4.23192 10.6325 4.23192 11.0007C4.23192 11.3688 3.93344 11.6673 3.56525 11.6673C3.27127 11.6673 2.96099 11.7926 2.65967 12.0376C2.35818 12.2826 2.1013 12.6205 1.93096 12.9637Z" fill="#344054"/>
<path fill-rule="evenodd" clip-rule="evenodd" d="M10.5405 8.00065C10.5405 6.89608 11.4359 6.00065 12.5405 6.00065C13.6451 6.00065 14.5405 6.89608 14.5405 8.00065C14.5405 9.10522 13.6451 10.0007 12.5405 10.0007C11.4359 10.0007 10.5405 9.10522 10.5405 8.00065ZM12.5405 7.33398C12.1723 7.33398 11.8738 7.63246 11.8738 8.00065C11.8738 8.36884 12.1723 8.66732 12.5405 8.66732C12.9087 8.66732 13.2072 8.36884 13.2072 8.00065C13.2072 7.63246 12.9087 7.33398 12.5405 7.33398Z" fill="#344054"/>
<path d="M15.2672 12.3709C15.4309 12.7007 15.2963 13.1008 14.9665 13.2645C14.6367 13.4282 14.2366 13.2935 14.0729 12.9637C13.9026 12.6205 13.6457 12.2826 13.3442 12.0376C13.0429 11.7926 12.7326 11.6673 12.4386 11.6673C12.0704 11.6673 11.772 11.3688 11.772 11.0007C11.772 10.6325 12.0704 10.334 12.4386 10.334C13.1209 10.334 13.7187 10.6237 14.1852 11.0029C14.6516 11.382 15.0223 11.8775 15.2672 12.3709Z" fill="#344054"/>
</g>
</g>
</svg>
