<svg width="16" height="16" viewBox="0 0 16 16" fill="none" xmlns="http://www.w3.org/2000/svg">
<g id="icon / user">
<g id="icon">
<path fill-rule="evenodd" clip-rule="evenodd" d="M8.00033 1.33398C6.15938 1.33398 4.66699 2.82637 4.66699 4.66732C4.66699 6.50827 6.15938 8.00065 8.00033 8.00065C9.84128 8.00065 11.3337 6.50827 11.3337 4.66732C11.3337 2.82637 9.84128 1.33398 8.00033 1.33398ZM6.00033 4.66732C6.00033 3.56275 6.89576 2.66732 8.00033 2.66732C9.1049 2.66732 10.0003 3.56275 10.0003 4.66732C10.0003 5.77189 9.1049 6.66732 8.00033 6.66732C6.89576 6.66732 6.00033 5.77189 6.00033 4.66732Z" fill="#344054"/>
<path fill-rule="evenodd" clip-rule="evenodd" d="M8.00032 15.334C6.97332 15.334 5.48687 15.1008 4.37061 14.6122C3.82261 14.3724 3.26529 14.0291 2.94149 13.5323C2.7712 13.2709 2.66355 12.9631 2.66708 12.6195C2.67057 12.2789 2.78262 11.9527 2.97094 11.6492C3.88387 10.1777 5.75152 8.66732 8.00032 8.66732C10.2491 8.66732 12.1168 10.1777 13.0297 11.6492C13.218 11.9527 13.3301 12.2789 13.3336 12.6195C13.3371 12.9631 13.2294 13.2709 13.0592 13.5323C12.7354 14.0291 12.178 14.3724 11.63 14.6122C10.5138 15.1008 9.02732 15.334 8.00032 15.334ZM4.10392 12.3521C4.01614 12.4936 4.00084 12.5845 4.00034 12.6331C3.99987 12.6787 4.01157 12.7322 4.05857 12.8043C4.16935 12.9743 4.43837 13.1865 4.90521 13.3908C5.81862 13.7905 7.11582 14.0007 8.00032 14.0007C8.88483 14.0007 10.182 13.7905 11.0954 13.3908C11.5623 13.1865 11.8313 12.9743 11.9421 12.8043C11.9891 12.7322 12.0008 12.6787 12.0003 12.6331C11.9998 12.5845 11.9845 12.4936 11.8967 12.3521C11.1486 11.1463 9.65655 10.0007 8.00032 10.0007C6.3441 10.0007 4.85202 11.1463 4.10392 12.3521Z" fill="#344054"/>
</g>
</g>
</svg>
