<svg width="25" height="24" viewBox="0 0 25 24" fill="none" xmlns="http://www.w3.org/2000/svg">
<path fill-rule="evenodd" clip-rule="evenodd" d="M11.552 3.36039C12.128 2.75439 12.5 2.40039 12.5 2.40039C12.63 2.83639 12.78 3.25039 12.945 3.64639C13.919 5.98139 15.433 7.66639 16.781 9.16639C18.353 10.9164 19.7 12.4144 19.7 14.4004C19.7 16.3099 18.9415 18.1413 17.5912 19.4916C16.241 20.8418 14.4096 21.6004 12.5 21.6004C10.5905 21.6004 8.75914 20.8418 7.40888 19.4916C6.05862 18.1413 5.30005 16.3099 5.30005 14.4004C5.30005 10.4024 9.59605 5.42039 11.552 3.36039ZM12.047 4.58639C11.2767 5.42005 10.5446 6.28828 9.85305 7.18839C8.98005 8.32839 8.12905 9.59839 7.50005 10.8724C6.86505 12.1604 6.50005 13.3664 6.50005 14.4004C6.50005 14.4004 9.50005 16.2004 12.5 15.0004C15.5 13.8004 18.5 14.4004 18.5 14.4004C18.5 12.9604 17.545 11.8124 15.883 9.96039L15.847 9.92239C14.6 8.53239 13.1 6.86639 12.047 4.58639Z" fill="#98A2B3"/>
<path fill-rule="evenodd" clip-rule="evenodd" d="M8.36298 11.7316C9.34698 9.76159 10.423 8.42759 10.875 7.97559L11.725 8.82559C11.377 9.17259 10.371 10.3976 9.43598 12.2686L8.36298 11.7316Z" fill="#98A2B3"/>
</svg>
