<svg width="25" height="24" viewBox="0 0 25 24" fill="none" xmlns="http://www.w3.org/2000/svg">
<path fill-rule="evenodd" clip-rule="evenodd" d="M9.99197 14.8683L9.99097 13.9783L9.98797 10.8733L9.98297 4.66926C9.98197 3.18926 11.1 1.98926 12.481 1.98926C13.861 1.98726 14.982 3.18526 14.983 4.66526L14.988 10.8683L14.991 13.9753V14.8643C15.6383 15.3817 16.109 16.0874 16.3379 16.8839C16.5668 17.6804 16.5426 18.5283 16.2688 19.3105C15.9949 20.0927 15.4849 20.7705 14.8092 21.2503C14.1335 21.73 13.3254 21.9881 12.4967 21.9888C11.6679 21.9894 10.8595 21.7327 10.183 21.254C9.50648 20.7753 8.99537 20.0983 8.72028 19.3165C8.44518 18.5348 8.41969 17.6869 8.64732 16.8901C8.87495 16.0932 9.34546 15.3867 9.99197 14.8683ZM11.979 10.6993C12.577 10.8543 13.259 11.0303 13.989 11.0183L13.988 9.97526H12.988C12.8554 9.97539 12.7281 9.92284 12.6343 9.82917C12.5404 9.73549 12.4876 9.60837 12.4875 9.47576C12.4873 9.34315 12.5399 9.21592 12.6336 9.12206C12.7272 9.0282 12.8544 8.97539 12.987 8.97526H13.987L13.986 7.97526H12.986C12.8534 7.97526 12.7262 7.92258 12.6324 7.82881C12.5387 7.73505 12.486 7.60787 12.486 7.47526C12.486 7.34265 12.5387 7.21548 12.6324 7.12171C12.7262 7.02794 12.8534 6.97526 12.986 6.97526H13.986L13.984 5.97526H12.984C12.8514 5.97526 12.7242 5.92258 12.6304 5.82881C12.5367 5.73505 12.484 5.60787 12.484 5.47526C12.484 5.34265 12.5367 5.21548 12.6304 5.12171C12.7242 5.02794 12.8514 4.97526 12.984 4.97526H13.984V4.66526C13.982 3.77826 13.31 3.05926 12.482 3.06026C11.653 3.06026 10.982 3.78026 10.983 4.66826L10.988 10.4883C11.281 10.5183 11.614 10.6053 11.979 10.6993Z" fill="#98A2B3"/>
</svg>
