<svg width="25" height="24" viewBox="0 0 25 24" fill="none" xmlns="http://www.w3.org/2000/svg">
<path fill-rule="evenodd" clip-rule="evenodd" d="M12.5 2.40039C12.5 2.40039 12.128 2.75439 11.552 3.36039C9.596 5.42039 5.3 10.4024 5.3 14.4004C5.3 16.3099 6.05857 18.1413 7.40883 19.4916C8.7591 20.8418 10.5904 21.6004 12.5 21.6004C14.4096 21.6004 16.2409 20.8418 17.5912 19.4916C18.9414 18.1413 19.7 16.3099 19.7 14.4004C19.7 12.4159 18.3551 10.9187 16.7846 9.17042L16.781 9.16639C15.433 7.66639 13.919 5.98139 12.945 3.64639C12.78 3.25039 12.63 2.83639 12.5 2.40039ZM11.5 8.81316H13.2052V10.8132H15.2901V12.5184H13.2052V14.8132H11.5V12.5184H9.49995V10.8132H11.5V8.81316ZM9.49995 15.8132H15.2901V17.4791H9.49995V15.8132Z" fill="#98A2B3"/>
</svg>
