<svg width="25" height="24" viewBox="0 0 25 24" fill="none" xmlns="http://www.w3.org/2000/svg">
<path d="M17.9 2.40039C17.7409 2.40039 17.5883 2.4636 17.4757 2.57613C17.3632 2.68865 17.3 2.84126 17.3 3.00039C17.3 3.15952 17.3632 3.31213 17.4757 3.42465C17.5883 3.53718 17.7409 3.60039 17.9 3.60039H19.7V6.90039H19.1C18.9409 6.90039 18.7883 6.9636 18.6757 7.07613C18.5632 7.18865 18.5 7.34126 18.5 7.50039C18.5 7.65952 18.5632 7.81213 18.6757 7.92465C18.7883 8.03718 18.9409 8.10039 19.1 8.10039H19.7V11.4004H17.9C17.8212 11.4004 17.7432 11.4159 17.6704 11.4461C17.5976 11.4762 17.5315 11.5204 17.4757 11.5761C17.42 11.6318 17.3758 11.698 17.3457 11.7708C17.3155 11.8436 17.3 11.9216 17.3 12.0004C17.3 12.0792 17.3155 12.1572 17.3457 12.23C17.3758 12.3028 17.42 12.3689 17.4757 12.4247C17.5315 12.4804 17.5976 12.5246 17.6704 12.5547C17.7432 12.5849 17.8212 12.6004 17.9 12.6004H19.7V15.9004H19.1C19.0212 15.9004 18.9432 15.9159 18.8704 15.9461C18.7976 15.9762 18.7315 16.0204 18.6757 16.0761C18.62 16.1318 18.5758 16.198 18.5457 16.2708C18.5155 16.3436 18.5 16.4216 18.5 16.5004C18.5 16.5792 18.5155 16.6572 18.5457 16.73C18.5758 16.8028 18.62 16.8689 18.6757 16.9247C18.7315 16.9804 18.7976 17.0246 18.8704 17.0547C18.9432 17.0849 19.0212 17.1004 19.1 17.1004H19.7V20.4004H17.9C17.7409 20.4004 17.5883 20.4636 17.4757 20.5761C17.3632 20.6886 17.3 20.8413 17.3 21.0004C17.3 21.1595 17.3632 21.3121 17.4757 21.4247C17.5883 21.5372 17.7409 21.6004 17.9 21.6004H20.3C20.3788 21.6004 20.4568 21.5849 20.5296 21.5547C20.6024 21.5246 20.6686 21.4804 20.7243 21.4247C20.78 21.3689 20.8242 21.3028 20.8543 21.23C20.8845 21.1572 20.9 21.0792 20.9 21.0004V3.00039C20.9 2.84126 20.8368 2.68865 20.7243 2.57613C20.6117 2.4636 20.4591 2.40039 20.3 2.40039H17.9ZM10.536 3.78939C10.4799 3.72992 10.4123 3.68253 10.3372 3.65015C10.2621 3.61776 10.1813 3.60106 10.0995 3.60106C10.0178 3.60106 9.93687 3.61776 9.86181 3.65015C9.78675 3.68253 9.7191 3.72992 9.66301 3.78939L9.66001 3.79139L9.65301 3.80039L9.62701 3.82739L9.53101 3.93339C9.00085 4.52255 8.49089 5.12956 8.00201 5.75339C7.07901 6.93339 5.94501 8.54339 5.14001 10.2264C4.54101 11.4774 4.10001 12.8194 4.10001 14.0804C4.10001 17.5374 6.75401 20.4004 10.1 20.4004C13.445 20.4004 16.1 17.5374 16.1 14.0804C16.1 12.8204 15.658 11.4774 15.06 10.2264C14.254 8.54339 13.12 6.93339 12.197 5.75339C11.6793 5.09159 11.1372 4.44915 10.572 3.82739L10.546 3.80039L10.539 3.79139L10.536 3.78939ZM10.08 5.12039L10.1 5.09739L10.119 5.12039C10.407 5.44839 10.805 5.92039 11.252 6.49239C11.985 7.43039 12.836 8.62439 13.532 9.88539H6.66901C7.36501 8.62439 8.21701 7.43039 8.94901 6.49239C9.39601 5.92039 9.79601 5.44839 10.083 5.12039H10.08ZM5.30001 14.0804C5.30001 13.1744 5.59201 12.1464 6.06501 11.0854H14.134C14.608 12.1454 14.9 13.1744 14.9 14.0804C14.9 16.9404 12.718 19.2004 10.1 19.2004C7.48101 19.2004 5.30001 16.9404 5.30001 14.0804Z" fill="#98A2B3"/>
<path d="M5.30001 14.0804C5.30001 13.1744 5.59201 12.1464 6.06501 11.0854H14.134C14.608 12.1454 14.9 13.1744 14.9 14.0804C14.9 16.9404 12.718 19.2004 10.1 19.2004C7.48101 19.2004 5.30001 16.9404 5.30001 14.0804Z" fill="#98A2B3"/>
</svg>
