<svg width="70" height="48" viewBox="0 0 70 48" fill="none" xmlns="http://www.w3.org/2000/svg">
<g id="fake-logo" clip-path="url(#clip0_12_1680)">
<path id="Vector" fill-rule="evenodd" clip-rule="evenodd" d="M2.49998 14.8155C0.72444 19.201 0.259877 24.0266 1.16511 28.6822C2.07022 33.3377 4.30449 37.6142 7.58519 40.9706C10.8659 44.327 15.0459 46.6128 19.5963 47.5389C24.147 48.4649 28.8637 47.9895 33.1503 46.1731C37.4367 44.3566 41.1005 41.2803 43.6781 37.3337C43.7468 37.2285 43.8147 37.1227 43.8817 37.0164C43.929 36.9415 43.976 36.8661 44.0226 36.7905V48H45.8271C50.4668 48 55.0023 46.5924 58.86 43.9551C62.7178 41.3182 65.7245 37.5698 67.5 33.1843C69.2756 28.799 69.7402 23.9734 68.8349 19.3178C67.9297 14.6623 65.6957 10.3859 62.4149 7.02946C59.1341 3.67294 54.9541 1.38722 50.4037 0.461214C45.853 -0.464905 41.1363 0.0103808 36.8497 1.8269C32.5633 3.64342 28.8996 6.71959 26.322 10.6663C26.2047 10.8459 26.0898 11.0271 25.9774 11.2096V1.43101e-05H24.1729C19.5332 1.43101e-05 14.9977 1.40762 11.14 4.04479C7.28231 6.68184 4.27553 10.4301 2.49998 14.8155ZM22.3685 24V3.77638C19.0794 4.08355 15.907 5.22681 13.1451 7.11475C9.88082 9.34617 7.33672 12.5179 5.83432 16.2286C4.33192 19.9394 3.93883 24.0225 4.70474 27.9619C5.47065 31.9011 7.36118 35.5197 10.1371 38.3597C12.9132 41.1998 16.45 43.1338 20.3005 43.9174C24.151 44.701 28.142 44.2989 31.7691 42.7618C35.2505 41.2865 38.2463 38.8293 40.4101 35.6811C38.7702 36.4776 36.936 36.9231 35 36.9231C28.0239 36.9231 22.3685 31.1371 22.3685 24ZM47.6316 44.2236V24C47.6316 16.8628 41.9761 11.0769 35 11.0769C33.0641 11.0769 31.2298 11.5225 29.5899 12.3189C31.7537 9.17073 34.7496 6.71338 38.2309 5.23817C41.858 3.70111 45.849 3.29895 49.6995 4.08254C53.5499 4.8661 57.0869 6.80026 59.863 9.64025C62.6389 12.4804 64.5294 16.0989 65.2952 20.0381C66.0611 23.9775 65.6681 28.0606 64.1657 31.7714C62.6634 35.4821 60.1193 38.6539 56.8549 40.8852C54.093 42.7731 50.9206 43.9164 47.6316 44.2236ZM34.8195 33.229C29.9797 33.1318 26.0742 29.136 25.9793 24.1846H29.3927C32.0856 24.8126 34.2054 26.9811 34.8195 29.7362V33.229ZM35.1804 33.229C40.0201 33.1318 43.9258 29.136 44.0208 24.1846H40.6073C37.9141 24.8126 35.7942 26.9815 35.1804 29.7369V33.229ZM44.0208 23.8154C43.9258 18.864 40.0201 14.8682 35.1804 14.771V18.2631C35.7942 21.0183 37.914 23.1873 40.6068 23.8154H44.0208ZM34.8195 14.771C29.9799 14.8682 26.0742 18.864 25.9793 23.8154H29.3933C32.0859 23.1873 34.2056 21.0187 34.8195 18.2638V14.771Z" fill="#099250"/>
</g>
<defs>
<clipPath id="clip0_12_1680">
<rect width="68.5714" height="48" fill="white" transform="translate(0.714294)"/>
</clipPath>
</defs>
</svg>
