<svg width="18" height="20" viewBox="0 0 18 20" fill="none" xmlns="http://www.w3.org/2000/svg">
<path fill-rule="evenodd" clip-rule="evenodd" d="M8.99997 6.87542C7.27408 6.87542 5.87497 8.27453 5.87497 10.0004C5.87497 11.7263 7.27408 13.1254 8.99997 13.1254C10.7259 13.1254 12.125 11.7263 12.125 10.0004C12.125 8.27453 10.7259 6.87542 8.99997 6.87542ZM7.12497 10.0004C7.12497 8.96489 7.96444 8.12542 8.99997 8.12542C10.0355 8.12542 10.875 8.96489 10.875 10.0004C10.875 11.036 10.0355 11.8754 8.99997 11.8754C7.96444 11.8754 7.12497 11.036 7.12497 10.0004Z" fill="#667185"/>
<path fill-rule="evenodd" clip-rule="evenodd" d="M11.8456 2.69399C11.0286 -0.16883 6.97139 -0.168829 6.15438 2.69399C5.90124 3.58099 4.98995 4.10712 4.09522 3.88285C1.20744 3.15899 -0.821147 6.6726 1.24962 8.81156C1.89122 9.47429 1.89122 10.5266 1.24962 11.1893C-0.821147 13.3282 1.20744 16.8419 4.09522 16.118C4.98995 15.8937 5.90124 16.4199 6.15438 17.3069C6.97139 20.1697 11.0286 20.1697 11.8456 17.3069C12.0987 16.4199 13.01 15.8937 13.9047 16.118C16.7925 16.8419 18.8211 13.3282 16.7503 11.1893C16.1087 10.5266 16.1087 9.47429 16.7503 8.81156C18.8211 6.6726 16.7925 3.15899 13.9047 3.88285C13.01 4.10712 12.0987 3.58099 11.8456 2.69399ZM7.35639 3.03703C7.82828 1.38349 10.1717 1.38349 10.6436 3.03703C11.0818 4.57272 12.6596 5.48363 14.2087 5.09534C15.8766 4.67724 17.0483 6.70667 15.8522 7.94211C14.7414 9.08951 14.7414 10.9113 15.8522 12.0587C17.0483 13.2942 15.8766 15.3236 14.2087 14.9055C12.6596 14.5172 11.0818 15.4281 10.6436 16.9638C10.1717 18.6174 7.82829 18.6174 7.35639 16.9638C6.91812 15.4281 5.34038 14.5172 3.79129 14.9055C2.12334 15.3236 0.951649 13.2942 2.1477 12.0587C3.25852 10.9113 3.25852 9.08951 2.1477 7.94211C0.95165 6.70667 2.12334 4.67724 3.79129 5.09534C5.34038 5.48363 6.91812 4.57272 7.35639 3.03703Z" fill="#667185"/>
</svg>
