<svg width="28" height="24" viewBox="0 0 28 24" fill="none" xmlns="http://www.w3.org/2000/svg">
<g clip-path="url(#clip0_108_22)">
<mask id="path-1-inside-1_108_22" fill="white">
<path d="M0.874988 23.9873C0.971039 24.0123 1.07308 23.9985 1.159 23.9488C1.24492 23.8991 1.30779 23.8175 1.33399 23.7218C2.10649 20.8395 5.24599 20.0925 7.12249 19.6455C7.59274 19.5338 7.96399 19.4453 8.20549 19.341C10.343 18.4133 11.0397 16.9208 11.2482 15.8318C11.2606 15.767 11.2557 15.7001 11.234 15.6378C11.2123 15.5755 11.1745 15.52 11.1245 15.477C10.0115 14.5163 9.07249 13.074 8.47999 11.415C8.46327 11.3674 8.43698 11.3238 8.40274 11.2868C7.61899 10.4348 7.16899 9.53401 7.16899 8.81626C7.16899 8.39701 7.32724 8.11576 7.68349 7.90351C7.73685 7.87161 7.78145 7.82694 7.81326 7.77353C7.84507 7.72011 7.86311 7.65962 7.86574 7.59751C8.03149 3.77701 10.7525 0.769508 14.09 0.750008L14.1702 0.755258C17.5242 0.801758 20.228 3.87376 20.3247 7.74826C20.3261 7.80122 20.3387 7.85328 20.3617 7.901C20.3847 7.94871 20.4176 7.99098 20.4582 8.02501C20.693 8.22376 20.8025 8.47576 20.8025 8.81776C20.8025 9.41851 20.4822 10.1573 19.9017 10.8968C19.8741 10.9323 19.8528 10.9724 19.8387 11.0153C19.2387 12.9173 18.1617 14.5965 16.8852 15.624C16.8324 15.6667 16.792 15.7229 16.7685 15.7867C16.745 15.8505 16.7392 15.9194 16.7517 15.9863C16.9602 17.0745 17.657 18.5663 19.7945 19.4955C20.0472 19.605 20.4395 19.6905 20.9367 19.7978C22.7945 20.1998 25.9032 20.874 26.666 23.7218C26.6788 23.7693 26.7008 23.8139 26.7309 23.853C26.7609 23.892 26.7983 23.9248 26.841 23.9494C26.8837 23.9739 26.9308 23.9899 26.9797 23.9962C27.0285 24.0026 27.0782 23.9993 27.1257 23.9865C27.1733 23.9737 27.2179 23.9517 27.2569 23.9216C27.296 23.8916 27.3287 23.8542 27.3533 23.8115C27.3779 23.7688 27.3938 23.7217 27.4002 23.6728C27.4066 23.624 27.4033 23.5743 27.3905 23.5268C26.5092 20.2365 22.9872 19.4738 21.0957 19.0643C20.657 18.969 20.2782 18.8873 20.0937 18.8063C18.6987 18.2003 17.8392 17.277 17.5355 16.0575C18.8307 14.9453 19.9145 13.2293 20.534 11.3048C21.1917 10.4498 21.5532 9.56926 21.5532 8.81701C21.5532 8.31526 21.3912 7.89676 21.0702 7.56976C20.8917 3.36676 17.8925 0.0570083 14.1702 0.0037583L14.0585 0.0022583C10.4037 0.0217583 7.39174 3.24451 7.12849 7.37476C6.65899 7.71976 6.42049 8.20351 6.42049 8.81776C6.42049 9.70501 6.92224 10.7663 7.80049 11.7398C8.40724 13.407 9.34774 14.8718 10.4675 15.897C10.1652 17.121 9.30499 18.0473 7.90699 18.654C7.72624 18.7328 7.36624 18.819 6.94924 18.918C5.04349 19.371 1.49749 20.2148 0.609488 23.5283C0.583843 23.6243 0.597406 23.7267 0.647195 23.8127C0.696984 23.8988 0.778921 23.9616 0.874988 23.9873Z"/>
</mask>
<path d="M0.874988 23.9873C0.971039 24.0123 1.07308 23.9985 1.159 23.9488C1.24492 23.8991 1.30779 23.8175 1.33399 23.7218C2.10649 20.8395 5.24599 20.0925 7.12249 19.6455C7.59274 19.5338 7.96399 19.4453 8.20549 19.341C10.343 18.4133 11.0397 16.9208 11.2482 15.8318C11.2606 15.767 11.2557 15.7001 11.234 15.6378C11.2123 15.5755 11.1745 15.52 11.1245 15.477C10.0115 14.5163 9.07249 13.074 8.47999 11.415C8.46327 11.3674 8.43698 11.3238 8.40274 11.2868C7.61899 10.4348 7.16899 9.53401 7.16899 8.81626C7.16899 8.39701 7.32724 8.11576 7.68349 7.90351C7.73685 7.87161 7.78145 7.82694 7.81326 7.77353C7.84507 7.72011 7.86311 7.65962 7.86574 7.59751C8.03149 3.77701 10.7525 0.769508 14.09 0.750008L14.1702 0.755258C17.5242 0.801758 20.228 3.87376 20.3247 7.74826C20.3261 7.80122 20.3387 7.85328 20.3617 7.901C20.3847 7.94871 20.4176 7.99098 20.4582 8.02501C20.693 8.22376 20.8025 8.47576 20.8025 8.81776C20.8025 9.41851 20.4822 10.1573 19.9017 10.8968C19.8741 10.9323 19.8528 10.9724 19.8387 11.0153C19.2387 12.9173 18.1617 14.5965 16.8852 15.624C16.8324 15.6667 16.792 15.7229 16.7685 15.7867C16.745 15.8505 16.7392 15.9194 16.7517 15.9863C16.9602 17.0745 17.657 18.5663 19.7945 19.4955C20.0472 19.605 20.4395 19.6905 20.9367 19.7978C22.7945 20.1998 25.9032 20.874 26.666 23.7218C26.6788 23.7693 26.7008 23.8139 26.7309 23.853C26.7609 23.892 26.7983 23.9248 26.841 23.9494C26.8837 23.9739 26.9308 23.9899 26.9797 23.9962C27.0285 24.0026 27.0782 23.9993 27.1257 23.9865C27.1733 23.9737 27.2179 23.9517 27.2569 23.9216C27.296 23.8916 27.3287 23.8542 27.3533 23.8115C27.3779 23.7688 27.3938 23.7217 27.4002 23.6728C27.4066 23.624 27.4033 23.5743 27.3905 23.5268C26.5092 20.2365 22.9872 19.4738 21.0957 19.0643C20.657 18.969 20.2782 18.8873 20.0937 18.8063C18.6987 18.2003 17.8392 17.277 17.5355 16.0575C18.8307 14.9453 19.9145 13.2293 20.534 11.3048C21.1917 10.4498 21.5532 9.56926 21.5532 8.81701C21.5532 8.31526 21.3912 7.89676 21.0702 7.56976C20.8917 3.36676 17.8925 0.0570083 14.1702 0.0037583L14.0585 0.0022583C10.4037 0.0217583 7.39174 3.24451 7.12849 7.37476C6.65899 7.71976 6.42049 8.20351 6.42049 8.81776C6.42049 9.70501 6.92224 10.7663 7.80049 11.7398C8.40724 13.407 9.34774 14.8718 10.4675 15.897C10.1652 17.121 9.30499 18.0473 7.90699 18.654C7.72624 18.7328 7.36624 18.819 6.94924 18.918C5.04349 19.371 1.49749 20.2148 0.609488 23.5283C0.583843 23.6243 0.597406 23.7267 0.647195 23.8127C0.696984 23.8988 0.778921 23.9616 0.874988 23.9873Z" fill="#545454"/>
<path d="M1.33399 23.7218L6.15672 25.0413L6.16016 25.0287L6.16353 25.0162L1.33399 23.7218ZM7.12249 19.6455L5.96648 14.781L5.96386 14.7816L7.12249 19.6455ZM8.20549 19.341L10.1871 23.9316L10.1962 23.9276L8.20549 19.341ZM11.2482 15.8318L16.159 16.772L16.1591 16.7714L11.2482 15.8318ZM11.1245 15.477L7.85731 19.2619L7.86358 19.2673L11.1245 15.477ZM8.47999 11.415L3.76264 13.0723L3.76693 13.0845L3.77128 13.0967L8.47999 11.415ZM8.40274 11.2868L4.72288 14.6718L4.73214 14.6819L8.40274 11.2868ZM7.68349 7.90351L10.2427 12.1989L10.249 12.1951L7.68349 7.90351ZM7.86574 7.59751L2.87043 7.38079L2.87022 7.38588L7.86574 7.59751ZM14.09 0.750008L14.4164 -4.23933L14.2388 -4.25095L14.0608 -4.24991L14.09 0.750008ZM14.1702 0.755258L13.8438 5.74459L13.9722 5.75299L14.1009 5.75478L14.1702 0.755258ZM20.3247 7.74826L15.3263 7.87307L15.3264 7.87594L20.3247 7.74826ZM20.4582 8.02501L23.689 4.209L23.6793 4.20073L23.6695 4.19251L20.4582 8.02501ZM19.9017 10.8968L15.9688 7.80941L15.9616 7.81851L15.9545 7.82765L19.9017 10.8968ZM19.8387 11.0153L15.0869 9.45956L15.0785 9.48526L15.0704 9.51104L19.8387 11.0153ZM16.8852 15.624L13.7501 11.7291L13.7437 11.7342L16.8852 15.624ZM16.7517 15.9863L11.8373 16.9072L11.8392 16.9172L11.8411 16.9271L16.7517 15.9863ZM19.7945 19.4955L17.801 24.0809L17.8068 24.0835L19.7945 19.4955ZM20.9367 19.7978L21.9942 14.9109L21.9909 14.9102L20.9367 19.7978ZM26.666 23.7218L21.8362 25.0154L21.8378 25.0213L26.666 23.7218ZM27.3905 23.5268L22.5607 24.8203L22.5623 24.8263L27.3905 23.5268ZM21.0957 19.0643L20.035 23.9504L20.0378 23.951L21.0957 19.0643ZM20.0937 18.8063L22.1037 14.228L22.0948 14.2241L22.0859 14.2203L20.0937 18.8063ZM17.5355 16.0575L14.2781 12.2642L11.9383 14.2734L12.6837 17.266L17.5355 16.0575ZM20.534 11.3048L16.571 8.25604L16.0409 8.94511L15.7745 9.77267L20.534 11.3048ZM21.0702 7.56976L16.0747 7.78192L16.1563 9.70139L17.5021 11.0724L21.0702 7.56976ZM14.1702 0.0037583L14.2418 -4.99573L14.2373 -4.99579L14.1702 0.0037583ZM14.0585 0.0022583L14.1256 -4.99729L14.0787 -4.99792L14.0318 -4.99767L14.0585 0.0022583ZM7.12849 7.37476L10.0892 11.4039L11.9699 10.0219L12.1184 7.6928L7.12849 7.37476ZM7.80049 11.7398L12.499 10.0299L12.1658 9.11409L11.513 8.39051L7.80049 11.7398ZM10.4675 15.897L15.3217 17.0957L16.0333 14.2138L13.844 12.2093L10.4675 15.897ZM7.90699 18.654L5.91633 14.0674L5.90988 14.0702L7.90699 18.654ZM6.94924 18.918L5.79429 14.0532L5.79295 14.0535L6.94924 18.918ZM0.609488 23.5283L-4.22009 22.234L-4.22137 22.2388L0.609488 23.5283ZM-0.385774 28.8257C0.983313 29.1824 2.43783 28.9852 3.66251 28.2769L-1.34451 19.6207C-0.291667 19.0117 0.958765 18.8421 2.13575 19.1488L-0.385774 28.8257ZM3.66251 28.2769C4.88719 27.5685 5.78334 26.406 6.15672 25.0413L-3.48875 22.4022C-3.16776 21.229 -2.39735 20.2297 -1.34451 19.6207L3.66251 28.2769ZM6.16353 25.0162C6.1419 25.0969 6.08502 25.2006 6.0239 25.2688C5.98356 25.3138 6.00858 25.2679 6.1908 25.1695C6.37635 25.0693 6.6459 24.9568 7.0242 24.8388C7.40803 24.719 7.79731 24.6247 8.28112 24.5094L5.96386 14.7816C5.10348 14.9866 3.21823 15.4094 1.43768 16.3713C-0.46348 17.3984 -2.64518 19.2545 -3.49556 22.4273L6.16353 25.0162ZM8.27849 24.51C8.54503 24.4467 9.44427 24.2522 10.1871 23.9316L6.22385 14.7505C6.34717 14.6972 6.43319 14.6688 6.45699 14.6611C6.4838 14.6524 6.48446 14.653 6.44535 14.6636C6.40743 14.6738 6.35144 14.6882 6.26687 14.7089C6.18163 14.7298 6.08707 14.7523 5.96648 14.781L8.27849 24.51ZM10.1962 23.9276C14.0726 22.2451 15.6883 19.2305 16.159 16.772L6.33744 14.8915C6.34216 14.8669 6.35128 14.831 6.36946 14.7874C6.38867 14.7412 6.41481 14.6942 6.4457 14.6529C6.47782 14.6099 6.4972 14.5971 6.48182 14.6091C6.46516 14.6221 6.38807 14.6792 6.21474 14.7544L10.1962 23.9276ZM16.1591 16.7714C16.3368 15.8428 16.2664 14.8837 15.955 13.9909L6.51299 17.2846C6.24502 16.5164 6.18443 15.6912 6.33733 14.8921L16.1591 16.7714ZM15.955 13.9909C15.6436 13.0982 15.1022 12.3033 14.3854 11.6867L7.86358 19.2673C7.24683 18.7367 6.78096 18.0528 6.51299 17.2846L15.955 13.9909ZM14.3917 11.6921C14.0512 11.3982 13.5481 10.7396 13.1887 9.73333L3.77128 13.0967C4.59691 15.4085 5.97177 17.6343 7.85732 19.2619L14.3917 11.6921ZM13.1973 9.75772C12.9541 9.06541 12.5716 8.43032 12.0733 7.89166L4.73214 14.6819C4.30239 14.2172 3.97243 13.6694 3.76264 13.0723L13.1973 9.75772ZM12.0826 7.90169C11.95 7.7575 11.9313 7.69952 11.9651 7.76709C11.9841 7.80519 12.0301 7.90429 12.0739 8.06414C12.1171 8.22204 12.169 8.47875 12.169 8.81626H2.16899C2.16899 11.3643 3.58392 13.4337 4.72289 14.6718L12.0826 7.90169ZM12.169 8.81626C12.169 9.24549 12.0834 9.96524 11.6488 10.7367C11.2116 11.5126 10.6321 11.9669 10.2427 12.1989L5.12432 3.60809C4.37864 4.05235 3.54187 4.75346 2.93652 5.82784C2.33367 6.89778 2.16899 7.96778 2.16899 8.81626H12.169ZM10.249 12.1951C11.0139 11.7379 11.6531 11.0977 12.1091 10.3321L3.51746 5.215C3.90982 4.55622 4.45981 4.00532 5.11797 3.61188L10.249 12.1951ZM12.1091 10.3321C12.565 9.56645 12.8235 8.69948 12.8613 7.80914L2.87022 7.38588C2.90268 6.61977 3.1251 5.87377 3.51746 5.215L12.1091 10.3321ZM12.861 7.81423C12.8954 7.02207 13.1897 6.4406 13.4907 6.1089C13.7814 5.78865 14.0106 5.75056 14.1192 5.74992L14.0608 -4.24991C7.46201 -4.21135 3.12404 1.53537 2.87044 7.38079L12.861 7.81423ZM13.7636 5.73934L13.8438 5.74459L14.4966 -4.23408L14.4164 -4.23933L13.7636 5.73934ZM14.1009 5.75478C14.2017 5.75617 14.4276 5.79241 14.7156 6.11962C15.0138 6.45844 15.3059 7.05606 15.3263 7.87307L25.3232 7.62344C25.1759 1.72664 20.896 -4.15198 14.2396 -4.24426L14.1009 5.75478ZM15.3264 7.87594C15.3458 8.63786 15.5272 9.38692 15.8583 10.0734L24.8651 5.72862C25.1502 6.31965 25.3064 6.96457 25.3231 7.62058L15.3264 7.87594ZM15.8583 10.0734C16.1894 10.7598 16.6628 11.368 17.247 11.8575L23.6695 4.19251C24.1725 4.61397 24.58 5.1376 24.8651 5.72862L15.8583 10.0734ZM17.2274 11.841C16.8184 11.4947 16.4109 11.0009 16.1323 10.3595C15.8625 9.73836 15.8025 9.18365 15.8025 8.81776H25.8025C25.8025 7.18945 25.1791 5.47054 23.689 4.209L17.2274 11.841ZM15.8025 8.81776C15.8025 8.25772 15.943 7.90726 15.982 7.81722C16.0291 7.7086 16.0445 7.71294 15.9688 7.80941L23.8347 13.9841C24.7387 12.8325 25.8025 11.0155 25.8025 8.81776H15.8025ZM15.9545 7.82765C15.5735 8.31764 15.28 8.86972 15.0869 9.45956L24.5906 12.571C24.4255 13.0751 24.1746 13.547 23.849 13.9659L15.9545 7.82765ZM15.0704 9.51104C14.7027 10.6766 14.107 11.4417 13.7501 11.7291L20.0204 19.519C22.2165 17.7513 23.7748 15.158 24.6071 12.5195L15.0704 9.51104ZM13.7437 11.7342C12.9886 12.344 12.4126 13.1469 12.077 14.0577L21.4601 17.5157C21.1714 18.2989 20.6761 18.9894 20.0268 19.5138L13.7437 11.7342ZM12.077 14.0577C11.7413 14.9685 11.6585 15.9532 11.8373 16.9072L21.6662 15.0653C21.8199 15.8857 21.7487 16.7325 21.4601 17.5157L12.077 14.0577ZM11.8411 16.9271C12.3122 19.386 13.9283 22.3973 17.801 24.0809L21.7879 14.9101C21.6139 14.8344 21.5362 14.7769 21.519 14.7635C21.5031 14.7511 21.5221 14.7636 21.5541 14.8063C21.5848 14.8474 21.6109 14.8943 21.6302 14.9405C21.6484 14.9843 21.6576 15.0204 21.6624 15.0454L11.8411 16.9271ZM17.8068 24.0835C18.6237 24.4373 19.6105 24.6267 19.8825 24.6854L21.9909 14.9102C21.8644 14.8829 21.7658 14.8615 21.6779 14.8418C21.5906 14.8222 21.5348 14.8089 21.4989 14.7998C21.4616 14.7904 21.4686 14.7913 21.5045 14.8025C21.524 14.8087 21.5575 14.8195 21.6019 14.8356C21.6459 14.8516 21.7075 14.8752 21.7821 14.9076L17.8068 24.0835ZM19.8793 24.6847C20.3576 24.7882 20.7382 24.8723 21.1119 24.981C21.4803 25.0882 21.7352 25.1902 21.9042 25.2782C22.0694 25.3641 22.0727 25.3954 22.0125 25.3293C21.9303 25.2389 21.8623 25.1128 21.8362 25.0154L31.4957 22.4281C30.643 19.2442 28.4399 17.406 26.5197 16.407C24.7317 15.4767 22.8436 15.0947 21.9942 14.9109L19.8793 24.6847ZM21.8378 25.0213C22.0213 25.7028 22.3371 26.3416 22.7675 26.9012L30.6942 20.8047C31.0645 21.2862 31.3363 21.8358 31.4942 22.4222L21.8378 25.0213ZM22.7675 26.9012C23.1979 27.4607 23.7342 27.93 24.3459 28.2823L29.3362 19.6164C29.8625 19.9195 30.324 20.3233 30.6942 20.8047L22.7675 26.9012ZM24.3459 28.2823C24.9576 28.6346 25.6327 28.8629 26.3326 28.9542L27.6268 19.0383C28.229 19.1169 28.8098 19.3133 29.3362 19.6164L24.3459 28.2823ZM26.3326 28.9542C27.0325 29.0455 27.7436 28.9982 28.4252 28.8147L25.8262 19.1583C26.4128 19.0005 27.0246 18.9597 27.6268 19.0383L26.3326 28.9542ZM28.4252 28.8147C29.1068 28.6312 29.7457 28.3153 30.3052 27.885L24.2087 19.9583C24.6901 19.588 25.2398 19.3162 25.8262 19.1583L28.4252 28.8147ZM30.3052 27.885C30.8648 27.4546 31.334 26.9182 31.6863 26.3066L23.0204 21.3163C23.3234 20.7901 23.7272 20.3286 24.2087 19.9583L30.3052 27.885ZM31.6863 26.3066C32.0385 25.6949 32.2668 25.0198 32.3582 24.3199L22.4423 23.0257C22.5209 22.4235 22.7173 21.8426 23.0204 21.3163L31.6863 26.3066ZM32.3582 24.3199C32.4495 23.62 32.4021 22.9089 32.2187 22.2272L22.5623 24.8263C22.4044 24.2397 22.3637 23.6279 22.4423 23.0257L32.3582 24.3199ZM32.2203 22.2332C31.319 18.8681 29.0237 16.894 26.9713 15.8015C25.047 14.7773 23.0372 14.3687 22.1537 14.1775L20.0378 23.951C21.0458 24.1693 21.7428 24.3469 22.2726 24.6289C22.4952 24.7474 22.5694 24.8267 22.5749 24.8329C22.5758 24.834 22.5679 24.8248 22.5593 24.8091C22.5503 24.7926 22.5531 24.792 22.5607 24.8203L32.2203 22.2332ZM22.1565 14.1781C22.1004 14.1659 22.05 14.155 22.001 14.1443C21.9524 14.1336 21.9087 14.124 21.8685 14.1151C21.8283 14.1061 21.7938 14.0983 21.7639 14.0913C21.7339 14.0844 21.711 14.0789 21.6941 14.0747C21.6769 14.0705 21.6693 14.0685 21.6694 14.0685C21.6697 14.0686 21.673 14.0695 21.6788 14.0711C21.6846 14.0728 21.694 14.0754 21.7064 14.0792C21.7294 14.0861 21.7738 14.0999 21.8335 14.1209C21.8641 14.1317 21.902 14.1455 21.9458 14.1626C21.9894 14.1796 22.0427 14.2013 22.1037 14.228L18.0838 23.3845C18.6116 23.6162 19.1295 23.742 19.3047 23.7851C19.5587 23.8476 19.8389 23.9079 20.035 23.9504L22.1565 14.1781ZM22.0859 14.2203C21.8902 14.1352 21.9363 14.1167 22.0654 14.2554C22.13 14.3248 22.2003 14.4181 22.2624 14.5325C22.3244 14.6469 22.3643 14.7568 22.3873 14.849L12.6837 17.266C13.4438 20.3176 15.6155 22.3123 18.1016 23.3922L22.0859 14.2203ZM20.7929 19.8508C22.9056 18.0366 24.4431 15.4786 25.2935 12.8368L15.7745 9.77267C15.3859 10.9799 14.7559 11.8539 14.2781 12.2642L20.7929 19.8508ZM24.497 14.3535C25.5411 12.9963 26.5532 11.0638 26.5532 8.81701H16.5532C16.5532 8.40721 16.647 8.16716 16.6639 8.12586C16.6847 8.07512 16.6709 8.12611 16.571 8.25604L24.497 14.3535ZM26.5532 8.81701C26.5532 7.14248 25.969 5.42258 24.6384 4.06711L17.5021 11.0724C17.1975 10.7621 16.9403 10.3744 16.7695 9.93329C16.6017 9.50015 16.5532 9.1092 16.5532 8.81701H26.5532ZM26.0657 7.3576C25.7992 1.08277 21.1563 -4.89681 14.2418 -4.99573L14.0987 5.00325C14.435 5.00806 14.8446 5.14919 15.2515 5.59624C15.6693 6.05523 16.0332 6.80458 16.0747 7.78192L26.0657 7.3576ZM14.2373 -4.99579L14.1256 -4.99729L13.9914 5.00181L14.1031 5.00331L14.2373 -4.99579ZM14.0318 -4.99767C7.21208 -4.96128 2.53252 0.87662 2.13861 7.05672L12.1184 7.6928C12.1787 6.74627 12.5472 6.01663 12.9678 5.56832C13.3792 5.12992 13.7792 5.00382 14.0852 5.00219L14.0318 -4.99767ZM4.16777 3.3456C2.34524 4.68484 1.42049 6.70263 1.42049 8.81776H11.4205C11.4205 9.16873 11.3488 9.66527 11.0862 10.1999C10.8198 10.7421 10.4459 11.1418 10.0892 11.4039L4.16777 3.3456ZM1.42049 8.81776C1.42049 11.4214 2.77065 13.6288 4.088 15.089L11.513 8.39051C11.352 8.21209 11.2994 8.10496 11.302 8.11067C11.3052 8.11733 11.3317 8.17411 11.359 8.28204C11.3862 8.38916 11.4205 8.57143 11.4205 8.81776H1.42049ZM3.10195 13.4497C3.93821 15.7476 5.2867 17.9327 7.09099 19.5847L13.844 12.2093C13.4088 11.8108 12.8763 11.0664 12.499 10.0299L3.10195 13.4497ZM5.6133 14.6983C5.63588 14.6069 5.67532 14.4972 5.73722 14.3826C5.79913 14.268 5.86949 14.1744 5.93447 14.1044C6.06433 13.9646 6.11159 13.9826 5.91633 14.0674L9.89765 23.2406C12.3923 22.1579 14.5661 20.1554 15.3217 17.0957L5.6133 14.6983ZM5.90988 14.0702C6.0084 14.0272 6.08659 13.9978 6.13387 13.9808C6.18297 13.963 6.21872 13.9515 6.23639 13.9459C6.25482 13.9401 6.26394 13.9375 6.26128 13.9383C6.25898 13.939 6.24983 13.9415 6.23233 13.9462C6.19551 13.956 6.14188 13.9696 6.06388 13.9886C5.98595 14.0077 5.89961 14.0282 5.79429 14.0532L8.10419 23.7828C8.26359 23.7449 9.20322 23.5432 9.9041 23.2378L5.90988 14.0702ZM5.79295 14.0535C4.89838 14.2662 2.89584 14.7169 0.982391 15.7725C-1.04648 16.8919 -3.32176 18.8819 -4.22009 22.234L5.43906 24.8226C5.45051 24.7798 5.4515 24.7868 5.45621 24.7815C5.47979 24.7547 5.57411 24.6602 5.81302 24.5284C6.37102 24.2205 7.09434 24.0228 8.10553 23.7825L5.79295 14.0535ZM-4.22137 22.2388C-4.58895 23.6158 -4.39454 25.0825 -3.6809 26.3162L4.97529 21.3092C5.58936 22.3708 5.75664 23.6328 5.44035 24.8178L-4.22137 22.2388ZM-3.6809 26.3162C-2.96726 27.55 -1.79282 28.4498 -0.415868 28.8178L2.16585 19.1568C3.35067 19.4734 4.36123 20.2476 4.97529 21.3092L-3.6809 26.3162Z" fill="#545454" mask="url(#path-1-inside-1_108_22)"/>
</g>
<defs>
<clipPath id="clip0_108_22">
<rect width="27" height="24" fill="white" transform="translate(0.5)"/>
</clipPath>
</defs>
</svg>
