<svg width="40" height="40" viewBox="0 0 40 40" fill="none" xmlns="http://www.w3.org/2000/svg">
<rect x="0.5" y="0.5" width="39" height="39" rx="19.5" fill="white"/>
<rect x="0.5" y="0.5" width="39" height="39" rx="19.5" stroke="#E4E7EC"/>
<path fill-rule="evenodd" clip-rule="evenodd" d="M20.0003 11.6667C19.6033 11.6667 19.2111 11.7543 18.8518 11.9234L13.581 14.4038C12.4127 14.9536 11.667 16.1286 11.667 17.4199V23.3333C11.667 24.1648 12.1472 24.9215 12.8995 25.2755L18.8518 28.0766C19.2111 28.2457 19.6033 28.3333 20.0003 28.3333C20.3974 28.3333 20.7896 28.2457 21.1488 28.0766L27.1011 25.2755C27.8535 24.9215 28.3337 24.1648 28.3337 23.3333V17.4199C28.3337 16.1286 27.588 14.9536 26.4196 14.4038L21.1488 11.9234C20.7896 11.7543 20.3974 11.6667 20.0003 11.6667ZM26.667 21.985L20.8337 19.0683V13.6171L25.71 15.9118C26.2941 16.1867 26.667 16.7742 26.667 17.4199V21.985ZM20.0003 20.515L26.4456 23.7377C26.4283 23.7487 26.4103 23.7586 26.3915 23.7675L20.4392 26.5686C20.3019 26.6332 20.152 26.6667 20.0003 26.6667C19.8486 26.6667 19.6988 26.6332 19.5615 26.5686L13.6092 23.7675C13.5904 23.7586 13.5723 23.7487 13.5551 23.7377L20.0003 20.515ZM19.167 19.0683L13.3337 21.985V17.4199C13.3337 16.7742 13.7065 16.1867 14.2907 15.9118L19.167 13.6171V19.0683Z" fill="black"/>
</svg>
