<svg width="20" height="20" viewBox="0 0 20 20" fill="none" xmlns="http://www.w3.org/2000/svg">
<g id="button-icon">
<path id="icon" d="M5.87571 4.69684C5.55028 4.3714 5.02264 4.3714 4.6972 4.69684C4.37177 5.02227 4.37177 5.54991 4.6972 5.87535L8.82199 10.0001L4.6972 14.1249C4.37177 14.4504 4.37177 14.978 4.6972 15.3034C5.02264 15.6289 5.55028 15.6289 5.87571 15.3034L10.0005 11.1786L14.1253 15.3034C14.4507 15.6289 14.9784 15.6289 15.3038 15.3034C15.6292 14.978 15.6292 14.4504 15.3038 14.1249L11.179 10.0001L15.3038 5.87535C15.6292 5.54991 15.6292 5.02227 15.3038 4.69684C14.9784 4.3714 14.4507 4.3714 14.1253 4.69684L10.0005 8.82163L5.87571 4.69684Z" fill="white"/>
</g>
</svg>
