<svg width="17" height="16" viewBox="0 0 17 16" fill="none" xmlns="http://www.w3.org/2000/svg">
<g id="Icon-right">
<path id="icon" fillRule="evenodd" clipRule="evenodd" d="M9.83398 1.33333C8.36123 1.33333 7.16732 2.52724 7.16732 4V5.33333H4.50065C3.02789 5.33333 1.83398 6.52724 1.83398 8V12C1.83398 13.4728 3.02789 14.6667 4.50065 14.6667H7.16732C8.64008 14.6667 9.83398 13.4728 9.83398 12V10.6667H12.5007C13.9734 10.6667 15.1673 9.47276 15.1673 8V4C15.1673 2.52724 13.9734 1.33333 12.5007 1.33333H9.83398ZM9.83398 9.33333H12.5007C13.237 9.33333 13.834 8.73638 13.834 8V4C13.834 3.26362 13.237 2.66667 12.5007 2.66667H9.83398C9.0976 2.66667 8.50065 3.26362 8.50065 4V5.69009C9.29772 6.15117 9.83398 7.01296 9.83398 8V9.33333ZM3.16732 8C3.16732 7.26362 3.76427 6.66667 4.50065 6.66667H7.16732C7.9037 6.66667 8.50065 7.26362 8.50065 8V12C8.50065 12.7364 7.9037 13.3333 7.16732 13.3333H4.50065C3.76427 13.3333 3.16732 12.7364 3.16732 12V8Z" fill="#344054"/>
</g>
</svg>
