<svg width="28" height="20" viewBox="0 0 28 20" fill="none" xmlns="http://www.w3.org/2000/svg">
<path fill-rule="evenodd" clip-rule="evenodd" d="M0.711049 6.34282C0.00404 8.08909 -0.180946 10.0106 0.17951 11.8645C0.539923 13.7182 1.42959 15.4211 2.73595 16.7576C4.0423 18.0941 5.70675 19.0043 7.5187 19.373C9.33078 19.7418 11.2089 19.5525 12.9158 18.8292C14.6226 18.1059 16.0815 16.8809 17.1079 15.3094C17.1353 15.2675 17.1623 15.2254 17.189 15.1831C17.2079 15.1532 17.2266 15.1232 17.2451 15.0931V19.5567H17.9636C19.8112 19.5567 21.6172 18.9962 23.1533 17.946C24.6894 16.896 25.8867 15.4034 26.5937 13.6571C27.3007 11.9109 27.4857 9.98944 27.1252 8.13558C26.7648 6.2818 25.8752 4.57895 24.5688 3.24245C23.2624 1.9059 21.598 0.995743 19.786 0.627012C17.974 0.258237 16.0958 0.447493 14.3889 1.17082C12.6821 1.89415 11.2232 3.11906 10.1968 4.69062C10.1501 4.76215 10.1044 4.8343 10.0596 4.90694V0.443365H9.34109C7.49358 0.443365 5.68758 1.00386 4.15147 2.05397C2.61534 3.10403 1.41806 4.59658 0.711049 6.34282ZM8.62256 10V1.94709C7.31289 2.0694 6.04966 2.52464 4.94987 3.27641C3.65006 4.16495 2.63701 5.42791 2.03876 6.90547C1.44052 8.3831 1.28399 10.009 1.58897 11.5776C1.89395 13.1462 2.64675 14.5871 3.75211 15.718C4.85751 16.8489 6.26588 17.619 7.79912 17.931C9.33235 18.243 10.9216 18.0829 12.3658 17.4709C13.7521 16.8834 14.945 15.9049 15.8066 14.6514C15.1536 14.9685 14.4232 15.1459 13.6524 15.1459C10.8745 15.1459 8.62256 12.842 8.62256 10ZM18.6822 18.0529V10C18.6822 7.15804 16.4302 4.85413 13.6524 4.85413C12.8815 4.85413 12.1511 5.03154 11.4981 5.34867C12.3597 4.09509 13.5526 3.11659 14.9389 2.52917C16.3832 1.91712 17.9724 1.75698 19.5056 2.069C21.0388 2.38101 22.4472 3.15118 23.5527 4.28205C24.658 5.41296 25.4108 6.85383 25.7157 8.42242C26.0207 9.99107 25.8642 11.6169 25.266 13.0945C24.6678 14.5721 23.6547 15.8351 22.3549 16.7236C21.2551 17.4754 19.9918 17.9306 18.6822 18.0529ZM13.5805 13.675C11.6533 13.6363 10.0982 12.0451 10.0604 10.0735H11.4196C12.4918 10.3236 13.336 11.1871 13.5805 12.2841V13.675ZM13.7242 13.675C15.6513 13.6363 17.2066 12.0451 17.2444 10.0735H15.8851C14.8127 10.3236 13.9686 11.1872 13.7242 12.2844V13.675ZM17.2444 9.9265C17.2066 7.95489 15.6513 6.36378 13.7242 6.3251V7.71563C13.9686 8.81274 14.8127 9.67639 15.8849 9.9265H17.2444ZM13.5805 6.3251C11.6534 6.36378 10.0982 7.95489 10.0604 9.9265H11.4198C12.492 9.67639 13.336 8.81287 13.5805 7.71591V6.3251Z" fill="#2E90FA"/>
</svg>
