<svg width="40" height="40" viewBox="0 0 40 40" fill="none" xmlns="http://www.w3.org/2000/svg">
<rect x="0.5" y="0.5" width="39" height="39" rx="19.5" fill="white"/>
<rect x="0.5" y="0.5" width="39" height="39" rx="19.5" stroke="#E4E7EC"/>
<path d="M20.8333 14.1667C20.8333 13.7064 20.4602 13.3333 20 13.3333C19.5398 13.3333 19.1667 13.7064 19.1667 14.1667V23.3333C19.1667 23.7936 19.5398 24.1667 20 24.1667C20.4602 24.1667 20.8333 23.7936 20.8333 23.3333V14.1667Z" fill="black"/>
<path fill-rule="evenodd" clip-rule="evenodd" d="M20 10.8333C18.3215 10.8333 16.9608 12.194 16.9608 13.8725V19.9306C15.7649 20.8742 15 22.3586 15 24.0188C15 26.8342 17.2114 29.1667 20 29.1667C22.7886 29.1667 25 26.8342 25 24.0188C25 22.3586 24.2351 20.8742 23.0392 19.9306V13.8725C23.0392 12.194 21.6785 10.8333 20 10.8333ZM16.6667 24.0188C16.6667 22.8501 17.2165 21.824 18.0509 21.1945C18.3821 20.9447 18.6275 20.5381 18.6275 20.0586V13.8725C18.6275 13.1145 19.242 12.5 20 12.5C20.758 12.5 21.3725 13.1145 21.3725 13.8725V20.0586C21.3725 20.5381 21.6179 20.9447 21.9491 21.1945C22.7835 21.824 23.3333 22.8501 23.3333 24.0188C23.3333 25.969 21.8138 27.5 20 27.5C18.1862 27.5 16.6667 25.969 16.6667 24.0188Z" fill="black"/>
</svg>
